<?xml version="1.0" encoding="UTF-8"?>
<svg version="1.1" xmlns="http://www.w3.org/2000/svg" width="1024" height="1024">
<path d="M0 0 C337.92 0 675.84 0 1024 0 C1024 337.92 1024 675.84 1024 1024 C686.08 1024 348.16 1024 0 1024 C0 686.08 0 348.16 0 0 Z " fill="#FDFEFE" transform="translate(0,0)"/>
<path d="M0 0 C337.92 0 675.84 0 1024 0 C1024 337.92 1024 675.84 1024 1024 C686.08 1024 348.16 1024 0 1024 C0 686.08 0 348.16 0 0 Z M438.90625 50.51953125 C436.30462061 50.94963934 433.70102457 51.3558771 431.09375 51.75 C353.44353849 63.69033615 278.55057079 99.46816393 218 149 C217.32839844 149.5465625 216.65679687 150.093125 215.96484375 150.65625 C215.35769531 151.1615625 214.75054687 151.666875 214.125 152.1875 C213.61195313 152.61417969 213.09890625 153.04085937 212.5703125 153.48046875 C210.86431936 155.05644077 210.86431936 155.05644077 209.18701172 157.3671875 C207.0784248 159.90558908 205.05755227 161.65872718 202.4375 163.64453125 C194.24877571 170.21970711 186.94751647 177.71745712 179.5390625 185.14526367 C177.01428514 187.67319701 174.47646992 190.18750323 171.9375 192.70117188 C163.81504032 200.79276982 156.02843375 208.89452199 149.17163086 218.09765625 C147.05802261 220.92245387 144.84385177 223.62231059 142.5625 226.3125 C138.67170123 231.03502749 135.09518601 235.94530547 131.5625 240.9375 C131.04179932 241.67202393 130.52109863 242.40654785 129.98461914 243.16333008 C127.73494092 246.37519549 125.73633495 249.48099842 124 253 C122.68693567 255.0133653 121.35162508 257.01231606 120 259 C117.56436939 262.61654241 115.23621153 266.25799779 113 270 C112.53980469 270.74378906 112.07960938 271.48757813 111.60546875 272.25390625 C108.17923415 277.83215597 105.19510547 283.516127 102.39453125 289.43359375 C101 292 101 292 99.54321289 293.40869141 C97.8237109 295.18178332 96.95914002 296.79486398 95.9140625 299.02734375 C95.35779175 300.20671509 95.35779175 300.20671509 94.7902832 301.40991211 C94.40573975 302.24401611 94.02119629 303.07812012 93.625 303.9375 C93.22434326 304.7941626 92.82368652 305.6508252 92.41088867 306.53344727 C89.84979847 312.046725 87.4537369 317.60801954 85.1796875 323.24609375 C83.89611704 326.24250823 82.43828991 329.10668612 80.9375 332 C78.37315461 337.01033637 76.54646178 342.03056837 74.8671875 347.39453125 C74 350 74 350 72.4375 353.0625 C70.69551067 356.62221733 69.79460788 360.18604676 68.84375 364.0234375 C68 367 68 367 66.6484375 370.51171875 C55.27577658 400.28256848 51.10438848 432.61505873 47.24279785 464.04736328 C47.03222416 465.74084583 46.8114636 467.43305577 46.58886719 469.125 C38.60083942 530.32904376 48.8446765 596.54574434 67 655 C67.26893066 655.87398437 67.53786133 656.74796875 67.81494141 657.6484375 C78.29479443 691.38907746 93.47889533 723.9190563 112 754 C112.49483887 754.80743652 112.98967773 755.61487305 113.49951172 756.44677734 C119.31974003 765.9053319 125.3297383 775.11485294 132 784 C132.81611458 785.13114764 133.62975925 786.26407991 134.44140625 787.3984375 C144.18206144 800.96461863 154.7141139 813.83093457 166.18359375 825.97265625 C168.27250434 828.18830224 170.27252873 830.46460047 172.2578125 832.7734375 C176.44213462 837.57989999 180.92225974 842.06877796 185.4375 846.5625 C186.24509766 847.37396484 187.05269531 848.18542969 187.88476562 849.02148438 C192.76008548 853.88894714 197.75399464 858.53580734 203 863 C203.79990356 863.69041382 203.79990356 863.69041382 204.6159668 864.39477539 C222.68589876 879.98092788 241.69377199 894.4408095 262 907 C262.70125 907.43554199 263.4025 907.87108398 264.125 908.31982422 C337.08582757 953.55617066 421.64459259 979.25056052 573 975 C573.87624023 974.87399414 574.75248047 974.74798828 575.65527344 974.61816406 C600.24971514 971.03130207 624.5202471 966.25457292 648.26464844 958.85253906 C650.93529654 958.02016641 653.61127072 957.20748953 656.2890625 956.3984375 C664.04061475 954.03284526 671.63759922 951.54164902 679.06640625 948.2734375 C681.48616047 947.22305151 683.91213539 946.24390562 686.3671875 945.28125 C715.90013808 933.50751643 743.65486895 918.79999078 770 901 C770.70946777 900.5246582 771.41893555 900.04931641 772.14990234 899.55957031 C781.82253946 893.07179822 791.18975993 886.22365081 800.44458008 879.15405273 C801.92782056 878.05355395 803.46327273 877.02448485 805 876 C805 875.34 805 874.68 805 874 C805.53109375 873.77699219 806.0621875 873.55398438 806.609375 873.32421875 C809.82715867 871.54181897 812.48771552 869.21492581 815.25 866.8125 C815.86133789 866.28350098 816.47267578 865.75450195 817.10253906 865.20947266 C833.60797822 850.81422255 850.5907776 835.69883506 864.08984375 818.40234375 C865.99833214 816.00209761 868.02403672 813.79501531 870.125 811.5625 C891.48021134 788.07923439 908.56448964 759.60063986 924 732 C924.42522949 731.24283691 924.85045898 730.48567383 925.28857422 729.70556641 C932.10323339 717.4727161 937.63224058 704.85893099 942.84033203 691.86914062 C943.89878813 689.25040881 944.98672961 686.64703489 946.08984375 684.046875 C961.871252 646.46785603 970.62827774 606.05908087 975.25 565.6875 C975.33317474 564.96150604 975.41634949 564.23551208 975.50204468 563.48751831 C977.31887864 547.4168604 978.23334973 531.42167598 978.25 515.25 C978.25167175 514.3830249 978.25334351 513.5160498 978.25506592 512.62280273 C978.25670282 498.20888465 977.635758 483.87680858 976.625 469.5 C976.56187622 468.58126099 976.49875244 467.66252197 976.43371582 466.71594238 C976.24948494 464.09103589 976.05346362 461.46735151 975.8515625 458.84375 C975.79624359 458.07975891 975.74092468 457.31576782 975.68392944 456.52862549 C975.303892 451.90031006 974.5222612 447.50268221 973.45776367 442.9833374 C972.94840171 440.7764418 972.59735796 438.58386001 972.32421875 436.3359375 C972.22117432 435.53559082 972.11812988 434.73524414 972.01196289 433.91064453 C971.90489014 433.07388184 971.79781738 432.23711914 971.6875 431.375 C970.62444973 423.54931993 969.24575853 415.84106225 967.5625 408.125 C967.36938232 407.23603027 967.17626465 406.34706055 966.97729492 405.43115234 C963.882651 391.60563175 959.92161482 378.11488883 955.4375 364.6875 C955.17710937 363.9061972 954.91671875 363.12489441 954.6484375 362.31991577 C949.8131369 347.87947977 944.33758881 333.85695023 938 320 C937.29689697 318.4536084 937.29689697 318.4536084 936.57958984 316.87597656 C919.38987244 279.35527361 897.48967149 244.24371099 870.52734375 212.9609375 C868.22767272 210.26673249 866.01533638 207.52332519 863.8125 204.75 C853.10800913 191.59601302 841.02152427 178.89318516 828.140625 167.86328125 C825.66813514 165.71113223 823.27728643 163.48019281 820.875 161.25 C815.02637791 155.91242256 808.84732236 151.07161133 802.58251953 146.23583984 C800.47956659 144.59357699 798.43092886 142.88808313 796.375 141.1875 C762.95268371 114.43870677 723.2405286 91.75185297 683 77 C681.58805374 76.46091164 680.17662688 75.92046161 678.765625 75.37890625 C646.67777637 63.17866006 614.05619989 54.64361471 580.05297852 49.89990234 C576.915494 49.46078112 574.0135192 49.0045064 571 48 C568.4170685 47.70672774 565.84761961 47.45721962 563.2578125 47.24609375 C562.08355461 47.14799408 562.08355461 47.14799408 560.88557434 47.0479126 C520.01404629 43.71048043 479.46611657 43.77645343 438.90625 50.51953125 Z " fill="#FEFEFE" transform="translate(0,0)"/>
<path d="M0 0 C0 3 0 3 -2.5 5.75 C-12.50566192 17.12436095 -16.55335798 31.57203228 -20 46 C-20.19505127 46.78528076 -20.39010254 47.57056152 -20.59106445 48.37963867 C-26.635792 74.98455361 -20.72345096 102.91316027 -9 127 C-8.45786865 128.11761719 -8.45786865 128.11761719 -7.90478516 129.2578125 C1.49759666 148.35367154 14.19776584 164.82827064 28.9921875 180.09765625 C38.67335411 190.1722432 47.22336049 200.70961482 47.375 215.3125 C47.40335938 216.54613281 47.43171875 217.77976562 47.4609375 219.05078125 C46.30669953 228.94005738 41.03222235 234.75911789 34.0625 241.5 C33.21147705 242.33370117 32.3604541 243.16740234 31.48364258 244.02636719 C13.4230143 261.41669356 -7.08771073 271.68780339 -32.30493164 271.47290039 C-39.7973088 271.2544344 -46.2218592 270.37330728 -53 267 C-53.92425781 266.57589844 -54.84851563 266.15179687 -55.80078125 265.71484375 C-70.41018991 258.46065605 -80.4520705 246.21880661 -86 231 C-88.59684492 223.25396441 -89.42103149 216.27037475 -89.25 208.125 C-89.24484375 207.11953125 -89.2396875 206.1140625 -89.234375 205.078125 C-89.18642664 200.55899199 -88.94106254 196.42747082 -88 192 C-87.88868278 190.27328865 -87.8255881 188.54274632 -87.8125 186.8125 C-87.79832031 185.95269531 -87.78414063 185.09289062 -87.76953125 184.20703125 C-87.78744467 181.79266029 -87.78744467 181.79266029 -90 180 C-94.33643601 179.68462284 -96.32653229 179.55102153 -100 182 C-100.73859399 184.38295344 -101.26354088 186.55801871 -101.6875 189 C-101.8127002 189.70624512 -101.93790039 190.41249023 -102.06689453 191.14013672 C-105.78657301 214.22238645 -100.76505619 237.6725983 -87.3359375 256.8828125 C-75.47370294 272.71234959 -58.34089227 281.73171462 -39 285 C-35.95141843 285.27744369 -32.93503697 285.33452384 -29.875 285.3125 C-29.05169189 285.30758545 -28.22838379 285.3026709 -27.38012695 285.29760742 C-4.71480757 284.87020801 16.09239805 275.81730375 33 261 C33.97839844 260.154375 34.95679688 259.30875 35.96484375 258.4375 C42.72653504 252.48532955 48.42372022 246.09216166 54 239 C59.00360227 232.99349706 64.42886173 227.4784576 70 222 C71.33448127 220.6678156 72.66817071 219.33483568 74 218 C73.34773437 217.38253906 72.69546875 216.76507813 72.0234375 216.12890625 C64.92664485 209.25192576 59.78577579 202.79009732 55.50390625 193.8894043 C49.079636 180.53584477 39.00150601 170.39863958 28.875 159.76953125 C14.61218922 144.40729548 5.07099677 126.58890978 -2 107 C-2.24008789 106.41299316 -2.48017578 105.82598633 -2.72753906 105.22119141 C-4.93971038 99.71580657 -6.08984727 94.20498018 -7.125 88.375 C-7.37830078 87.00214844 -7.37830078 87.00214844 -7.63671875 85.6015625 C-8.10144831 83.06933528 -8.55742654 80.53619044 -9 78 C-9.17869629 77.02458252 -9.35739258 76.04916504 -9.54150391 75.04418945 C-12.90102369 52.73862384 -9.16334832 28.87452301 -1 8 C-0.34 7.67 0.32 7.34 1 7 C1.00410889 7.83845459 1.00821777 8.67690918 1.01245117 9.54077148 C1.17179016 28.23442134 2.37063029 45.78443659 7 64 C7.309375 65.25296875 7.61875 66.5059375 7.9375 67.796875 C15.12049341 93.57869061 30.20784671 116.46587607 47.03344727 136.88793945 C50.90704008 141.60146513 54.6163492 146.41208255 58.25 151.3125 C62.98970194 157.69712118 67.8953178 163.90101449 73 170 C73.9261135 171.11300487 74.85187887 172.22629949 75.77734375 173.33984375 C78.18014596 176.23058003 80.59020538 179.11503461 83 182 C83.33 175.73 83.66 169.46 84 163 C90.43364606 167.01058455 96.64915501 171.15118983 102.74609375 175.65234375 C106.78274542 178.59710368 110.92912187 181.38112101 115.0625 184.1875 C123.7853673 190.12001792 132.34715284 196.25364927 140.87646484 202.45996094 C144.28010898 204.928366 147.70164722 207.37153516 151.125 209.8125 C151.72352783 210.23942139 152.32205566 210.66634277 152.9387207 211.10620117 C154.2921802 212.07122205 155.6460386 213.03568344 157 214 C155.48601922 217.81488941 153.27002932 219.63076629 150.0625 222.125 C146.07609331 225.29541471 142.2415477 228.54377896 138.5 232 C134.10971431 236.03633055 129.5882438 239.84030529 124.94921875 243.5859375 C121.5863101 246.33862299 118.29082875 249.16195574 115 252 C109.07868592 257.09928879 103.08017208 262.09048791 97 267 C96.05382812 267.76957031 95.10765625 268.53914063 94.1328125 269.33203125 C93.22273437 270.06808594 92.31265625 270.80414062 91.375 271.5625 C90.55773437 272.22378906 89.74046875 272.88507813 88.8984375 273.56640625 C87 275 87 275 86 275 C86 267.74 86 260.48 86 253 C85.34 253 84.68 253 84 253 C83.74089844 253.556875 83.48179687 254.11375 83.21484375 254.6875 C78.1741752 264.28259898 70.41992337 272.21892991 63 280 C62.33226562 280.72058594 61.66453125 281.44117188 60.9765625 282.18359375 C48.58365965 295.17783998 33.93367366 303.316272 17.1875 309.375 C16.53104492 309.61379883 15.87458984 309.85259766 15.19824219 310.09863281 C4.75933212 313.67842778 -5.58257936 314.3910464 -16.5625 314.375 C-17.22163391 314.37412384 -17.88076782 314.37324768 -18.55987549 314.37234497 C-45.01525568 314.25665322 -67.80875553 305.21604454 -88 288 C-89.10601562 287.11248047 -89.10601562 287.11248047 -90.234375 286.20703125 C-108.88141125 270.7008965 -121.34505825 246.46588654 -123.8059082 222.4519043 C-124.14932728 218.11359266 -124.22512299 213.78786628 -124.25 209.4375 C-124.270625 208.56287109 -124.29125 207.68824219 -124.3125 206.78710938 C-124.39348903 192.64439985 -120.51889924 179.2654156 -116 166 C-115.64217941 164.93649323 -115.64217941 164.93649323 -115.27713013 163.85150146 C-110.75324821 150.46042179 -105.34475644 137.63817613 -99 125 C-98.5786377 124.15308594 -98.15727539 123.30617188 -97.72314453 122.43359375 C-88.86938044 104.76063708 -78.47952134 88.07799971 -67 72 C-66.4544043 71.23510254 -65.90880859 70.47020508 -65.34667969 69.68212891 C-57.699381 59.01434155 -49.72971187 48.80009504 -41 39 C-40.22140625 38.11054688 -39.4428125 37.22109375 -38.640625 36.3046875 C-30.66693416 27.28480319 -22.20928367 18.75937915 -13 11 C-11.87217245 10.04323201 -10.74458968 9.08617544 -9.6171875 8.12890625 C-6.41618669 5.41364021 -3.20932436 2.7054213 0 0 Z " fill="#5AB5CB" transform="translate(451,272)"/>
<path d="M0 0 C0.82454681 0.05885376 1.64909363 0.11770752 2.49862671 0.17834473 C12.16549854 0.88462894 21.58757118 2.0430152 31.08959961 3.96264648 C34.22319143 4.59395775 37.35422595 5.15987775 40.5078125 5.6796875 C58.31914893 8.63591909 75.97035609 12.08739547 93.11669922 17.83007812 C96.3451153 18.90683 99.58103318 19.95996443 102.81640625 21.015625 C129.60066637 29.78329501 129.60066637 29.78329501 140.6875 34.6875 C141.94046875 35.23712402 141.94046875 35.23712402 143.21875 35.79785156 C173.33593338 49.0891502 201.82356875 64.65437466 228.6875 83.6875 C229.35620117 84.1604248 230.02490234 84.63334961 230.71386719 85.12060547 C240.71055483 92.2282958 250.26462134 99.83910132 259.6875 107.6875 C260.27885742 108.17831055 260.87021484 108.66912109 261.47949219 109.17480469 C277.51065281 122.52958429 293.10005301 136.83547851 306.6875 152.6875 C307.66562276 153.80299955 308.6448937 154.91749284 309.625 156.03125 C316.43922021 163.79481661 323.02544849 171.68349993 329.30615234 179.88525391 C330.24023469 181.10395236 331.17817293 182.31970355 332.11962891 183.53271484 C344.19169046 199.09539587 354.8251607 215.64813367 364.6875 232.6875 C365.25235107 233.65478027 365.25235107 233.65478027 365.82861328 234.64160156 C385.01022936 267.64960065 401.12383069 303.87408985 409.83203125 341.140625 C410.64194018 344.49860357 411.60689873 347.76272512 412.625 351.0625 C417.02736047 366.23585309 419.66342276 382.11045165 421.328125 397.80859375 C421.59987541 400.75175937 421.59987541 400.75175937 422.6875 403.6875 C422.98206462 406.44231717 423.23125441 409.18386164 423.44140625 411.9453125 C423.50685135 412.78375702 423.57229645 413.62220154 423.63972473 414.48605347 C428.62965235 479.94878632 424.31047832 543.72998287 404.6875 606.6875 C404.4292041 607.53344727 404.1709082 608.37939453 403.90478516 609.25097656 C389.80246393 655.17182989 367.46962162 697.62343697 339.6875 736.6875 C339.14867187 737.44562988 338.60984375 738.20375977 338.0546875 738.98486328 C330.58369809 749.43870491 322.75868624 759.37470872 314.20507812 768.95947266 C312.77516944 770.58767305 311.38859343 772.24165819 310.015625 773.91796875 C303.42736641 781.9216077 296.26262994 789.30073869 288.9375 796.625 C288.44163391 797.12177246 287.94576782 797.61854492 287.43487549 798.13037109 C281.69722229 803.8668375 275.85750621 809.41688592 269.6875 814.6875 C268.35500467 815.86127931 267.02428751 817.03708016 265.6953125 818.21484375 C264.40119852 819.35174107 263.10692833 820.48846061 261.8125 821.625 C261.14992188 822.21345703 260.48734375 822.80191406 259.8046875 823.40820312 C259.17046875 823.96314453 258.53625 824.51808594 257.8828125 825.08984375 C257.31578613 825.58991943 256.74875977 826.08999512 256.16455078 826.60522461 C254.6875 827.6875 254.6875 827.6875 252.6875 827.6875 C252.3575 828.6775 252.0275 829.6675 251.6875 830.6875 C250.078125 831.94140625 250.078125 831.94140625 247.9375 833.25 C243.91251504 835.82063224 240.12858767 838.61564357 236.375 841.5625 C230.3433206 846.26098955 224.10564774 850.52915518 217.6875 854.6875 C216.42256856 855.52642695 215.15827998 856.36632375 213.89453125 857.20703125 C197.80294902 867.84858113 181.08429533 877.35272722 163.6875 885.6875 C162.91631836 886.06003906 162.14513672 886.43257812 161.35058594 886.81640625 C148.39790799 893.06835594 135.44004164 898.7963227 121.859375 903.5703125 C119.45661559 904.41660461 117.06817235 905.2820306 114.6875 906.1875 C113.75550781 906.53554687 113.75550781 906.53554687 112.8046875 906.890625 C111.20148303 907.49404513 109.60337741 908.11103477 108.0078125 908.734375 C71.91180485 922.3255368 32.05918826 929.02340435 -6.3125 931.6875 C-7.51277832 931.77427002 -7.51277832 931.77427002 -8.73730469 931.86279297 C-90.86397913 937.54122737 -172.66256853 921.15526477 -288.35107422 862.00097656 C-290.69473354 860.43153579 -293.05241379 858.88413796 -295.41015625 857.3359375 C-307.6675821 849.26179193 -319.47371249 840.87596187 -330.890625 831.640625 C-332.49507777 830.34671148 -334.10963486 829.06522053 -335.734375 827.796875 C-341.49937337 823.28034761 -346.90482943 818.48578572 -352.2578125 813.49609375 C-354.48816025 811.42153281 -356.77250258 809.42338945 -359.08203125 807.4375 C-363.88811855 803.24899606 -368.37952082 798.76700582 -372.875 794.25 C-373.68646484 793.44240234 -374.49792969 792.63480469 -375.33398438 791.80273438 C-380.20258703 786.9262728 -384.82126353 781.91086854 -389.3125 776.6875 C-390.78784536 775.05902983 -392.2664343 773.43348483 -393.75 771.8125 C-398.15143884 766.92779508 -402.27249484 761.87317827 -406.3125 756.6875 C-407.1065625 755.676875 -407.900625 754.66625 -408.71875 753.625 C-414.54087694 746.17335649 -420.02101526 738.52715205 -425.3125 730.6875 C-425.70937012 730.10242676 -426.10624023 729.51735352 -426.51513672 728.91455078 C-431.31489835 721.83009499 -436.00408797 714.67978013 -440.5625 707.4375 C-440.95042725 706.82479248 -441.33835449 706.21208496 -441.73803711 705.58081055 C-457.12127977 680.93699265 -469.37827465 653.92113101 -479.3125 626.6875 C-479.97092152 624.93212932 -480.62974594 623.17690969 -481.2890625 621.421875 C-486.20481769 608.10176416 -489.84509497 594.4455452 -493.3125 580.6875 C-493.54710937 579.76775391 -493.78171875 578.84800781 -494.0234375 577.90039062 C-508.318535 521.18248907 -511.0447152 461.52474724 -503.3125 403.6875 C-503.15233398 402.4612793 -502.99216797 401.23505859 -502.82714844 399.97167969 C-499.09898423 372.02232124 -493.21374638 344.16773307 -483.3984375 317.69140625 C-482.41050795 314.95860833 -481.55258339 312.22928201 -480.75 309.4375 C-479.27305643 304.37133603 -477.34162608 299.55451415 -475.3125 294.6875 C-474.91933594 293.71554687 -474.52617187 292.74359375 -474.12109375 291.7421875 C-471.82006089 286.10141103 -469.37001648 280.62186005 -466.5234375 275.234375 C-465.5252397 273.13493962 -464.71768045 271.09997308 -463.93359375 268.91796875 C-462.30666655 264.49508343 -460.2276984 260.39685916 -458 256.25 C-457.60409668 255.50572754 -457.20819336 254.76145508 -456.80029297 253.99462891 C-454.28284829 249.32054262 -451.56790817 244.88908797 -448.51953125 240.5390625 C-446.6914989 237.73489637 -445.56467901 234.78813375 -444.3125 231.6875 C-442.17996865 227.88603107 -439.72940436 224.31285654 -437.3125 220.6875 C-436.8175 219.8625 -436.3225 219.0375 -435.8125 218.1875 C-433.517912 214.36318667 -430.99314203 210.69672783 -428.5 207 C-427.29259836 205.17164894 -426.09787141 203.33392111 -424.9609375 201.4609375 C-416.44344451 187.57280853 -405.9865757 174.95864703 -395.3125 162.6875 C-394.56566452 161.81623474 -394.56566452 161.81623474 -393.80374146 160.92736816 C-389.504591 155.94711484 -385.00687385 151.22134719 -380.359375 146.56640625 C-379.61850647 145.82220932 -378.87763794 145.07801239 -378.11431885 144.31126404 C-376.55587391 142.74778928 -374.99610128 141.18563691 -373.43505859 139.62475586 C-371.07750227 137.26501616 -368.72806714 134.89739071 -366.37890625 132.52929688 C-359.32370278 125.44936155 -352.32169338 118.6191722 -344.44555664 112.45263672 C-342.54741007 110.88189165 -341.04243435 109.35998325 -339.51171875 107.44140625 C-337.0380808 104.34386673 -334.255414 102.01063823 -331.125 99.625 C-330.22031982 98.92673096 -330.22031982 98.92673096 -329.29736328 98.21435547 C-256.21272891 42.21059129 -169.39305959 6.86997936 -77.3125 -0.3125 C-76.61753418 -0.37034668 -75.92256836 -0.42819336 -75.20654297 -0.48779297 C-50.2451702 -2.48731344 -24.94314212 -1.8464851 0 0 Z M-133.3125 16.6875 C-134.44026855 16.90164551 -135.56803711 17.11579102 -136.72998047 17.33642578 C-159.15683948 21.69925799 -181.72720479 27.9539887 -202.8515625 36.7265625 C-205.65825439 37.82250886 -208.50125365 38.72016803 -211.375 39.625 C-215.938474 41.1091516 -219.90943833 42.91527681 -223.984375 45.44140625 C-226.59793363 46.84027404 -229.302118 47.78034844 -232.08251953 48.79272461 C-236.17492975 50.43479637 -240.00378955 52.58660366 -243.875 54.6875 C-249.27765049 57.60553203 -254.6330271 60.34846354 -260.3125 62.6875 C-261.3025 63.1825 -261.3025 63.1825 -262.3125 63.6875 C-262.3125 64.3475 -262.3125 65.0075 -262.3125 65.6875 C-262.9828125 65.76226562 -263.653125 65.83703125 -264.34375 65.9140625 C-268.30976382 66.94731347 -271.35929884 68.90168502 -274.8125 71.0625 C-275.78896484 71.66191406 -275.78896484 71.66191406 -276.78515625 72.2734375 C-278.05870976 73.05557945 -279.33041169 73.8407456 -280.60009766 74.62915039 C-282.01367973 75.50281425 -283.43896018 76.35751989 -284.8671875 77.20703125 C-305.72763002 89.83659629 -326.20928236 104.79292055 -343.91015625 121.59375 C-346.3125 123.6875 -346.3125 123.6875 -348.68359375 124.96875 C-351.82984079 127.02573172 -353.8067127 129.4487733 -356.21972656 132.30615234 C-360.90487788 137.63734296 -366.11766906 142.50956303 -371.19140625 147.47045898 C-378.06361453 154.20024389 -384.319055 161.14475475 -390.3125 168.6875 C-391.29512305 169.8587394 -392.28363293 171.02509905 -393.28125 172.18359375 C-399.26631691 179.13846317 -404.95025309 186.23583273 -410.3125 193.6875 C-410.82151855 194.39229492 -411.33053711 195.09708984 -411.85498047 195.82324219 C-431.41108431 223.01336379 -449.89734694 252.44433948 -461.6875 283.9375 C-463.27213719 288.10609514 -464.96139074 292.1600885 -466.875 296.1875 C-469.17002824 301.12288988 -470.80329917 306.12927769 -472.3203125 311.3515625 C-473.06801725 313.86549894 -473.85692659 316.34072466 -474.6953125 318.82421875 C-479.95045102 334.48144992 -484.3995785 350.3671924 -488.1875 366.4375 C-488.47334961 367.63656982 -488.75919922 368.83563965 -489.05371094 370.07104492 C-490.74041984 377.40762119 -491.92640622 384.70173793 -492.85058594 392.17138672 C-493.25295451 395.23423674 -493.7525944 398.24104958 -494.3359375 401.2734375 C-501.5447824 439.68769322 -500.23897936 481.08806556 -495.3125 519.6875 C-495.08771973 521.54858398 -495.08771973 521.54858398 -494.85839844 523.44726562 C-486.43756395 592.78059074 -461.76427168 659.36177891 -423.3125 717.6875 C-422.72726562 718.60789062 -422.14203125 719.52828125 -421.5390625 720.4765625 C-411.3584759 736.25869457 -399.56218642 751.83793977 -386.875 765.6875 C-382.3125 770.6875 -382.3125 770.6875 -380.47558594 772.76733398 C-374.57462548 779.41902028 -368.41510866 785.77110373 -362.12939453 792.0559082 C-360.44142145 793.74607346 -358.76164276 795.44410834 -357.08203125 797.14257812 C-350.46713277 803.79131225 -343.66772582 809.85685904 -336.3125 815.6875 C-335.23421439 816.59893668 -334.16130693 817.51683853 -333.09765625 818.4453125 C-318.17086312 831.42327037 -302.13153125 842.78772399 -285.42578125 853.34814453 C-283.60916366 854.49948049 -281.80346688 855.66801562 -280 856.83984375 C-273.92927345 860.78064209 -267.70836546 864.30377884 -261.3125 867.6875 C-259.91524602 868.43206922 -258.51811968 869.17687798 -257.12109375 869.921875 C-255.62260258 870.71913871 -254.12390453 871.51601371 -252.625 872.3125 C-251.9242334 872.68487793 -251.2234668 873.05725586 -250.50146484 873.44091797 C-243.54491712 877.12129337 -236.58874733 880.67478712 -229.3125 883.6875 C-228.41917969 884.06181152 -227.52585937 884.43612305 -226.60546875 884.82177734 C-183.09939681 902.98846463 -137.47401506 917.23576698 -90.3125 921.6875 C-89.45043945 921.77628418 -88.58837891 921.86506836 -87.70019531 921.95654297 C-72.39801539 923.49506326 -57.17853743 923.8760217 -41.8125 923.875 C-40.93547424 923.87590637 -40.05844849 923.87681274 -39.15484619 923.87774658 C-20.45806496 923.87555834 -2.04123885 922.94214976 16.5 920.5 C17.33921997 920.3904599 18.17843994 920.2809198 19.04309082 920.1680603 C67.56323701 913.77868658 114.66484805 900.16869222 158.6875 878.6875 C159.42661621 878.33236328 160.16573242 877.97722656 160.92724609 877.61132812 C165.55811291 875.38538793 170.13781642 873.07482797 174.6875 870.6875 C175.43354492 870.2965918 176.17958984 869.90568359 176.94824219 869.50292969 C197.66183345 858.56581463 217.09902406 845.92694165 235.6875 831.6875 C236.33686523 831.19121094 236.98623047 830.69492187 237.65527344 830.18359375 C254.83786947 816.9979947 270.89804988 802.66450182 286.20678711 787.35351562 C287.8792165 785.68328905 289.55953669 784.02127621 291.24023438 782.359375 C297.21546963 776.41318245 302.77969294 770.38677585 307.97387695 763.734375 C309.6875 761.6875 309.6875 761.6875 311.6875 760.6875 C311.6875 760.0275 311.6875 759.3675 311.6875 758.6875 C312.285625 758.460625 312.88375 758.23375 313.5 758 C315.84746368 756.82629628 315.84746368 756.82629628 317.0390625 754.41796875 C319.39317626 750.51861918 322.50003248 747.47564321 325.62890625 744.1875 C327.66979418 741.70900233 328.57671795 739.66280907 329.6875 736.6875 C331.3329378 734.99987149 333.00038577 733.3334651 334.6875 731.6875 C335.71562841 730.03803653 336.71240847 728.36886084 337.6875 726.6875 C339.43705406 723.92002357 341.20294775 721.16337984 342.96875 718.40625 C346.74866432 712.4271128 350.27635983 706.29366975 353.85302734 700.19165039 C356.13216129 696.30918664 358.44162616 692.45236107 360.8125 688.625 C364.42956878 682.60328773 367.49413231 676.30175675 370.56494141 669.99023438 C371.33090196 668.41899906 372.10161999 666.85007626 372.87646484 665.28320312 C400.46617807 609.46801848 416.77842672 546.27528257 418.07421875 483.8984375 C418.09974319 482.71512848 418.12526764 481.53181946 418.15156555 480.31265259 C418.20323188 477.82355081 418.25269576 475.33440242 418.30004883 472.84521484 C418.37439392 469.09308813 418.46534466 465.34159104 418.55664062 461.58984375 C418.83625227 448.42010246 418.57395652 435.72471747 416.6875 422.6875 C416.49009847 420.92918935 416.29879008 419.17016881 416.1171875 417.41015625 C414.70247787 405.13934308 412.60121131 392.98784004 410.39093018 380.83956909 C410.05317111 378.98061562 409.71884856 377.12103369 409.3883667 375.26077271 C407.17217719 362.84771937 404.19261887 350.9100769 400.37368774 338.89385986 C399.28289177 335.38652755 398.30160735 331.84954499 397.3125 328.3125 C392.02388389 310.11433393 384.78915956 292.72440578 376.95996094 275.49072266 C375.8495123 273.04441199 374.75464744 270.59191885 373.6640625 268.13671875 C365.08609762 249.09228938 354.14240911 231.12079468 342.6875 213.6875 C341.90656982 212.49664795 341.90656982 212.49664795 341.10986328 211.28173828 C333.98967058 200.48995943 326.38913591 190.29450637 318.09326172 180.38134766 C316.16536805 178.05836637 314.30199573 175.68650149 312.4375 173.3125 C309.13161971 169.16449021 305.63921402 165.21697203 302.05859375 161.3046875 C300.77438382 159.88719054 299.49626337 158.46355998 298.25415039 157.0090332 C293.3574865 151.28757534 288.10467357 145.95195858 282.7722168 140.6418457 C281.25258332 139.1275742 279.73837483 137.6080257 278.22460938 136.08789062 C272.88508085 130.74438124 267.4563876 125.56998625 261.6875 120.6875 C260.67780898 119.81055909 259.66865839 118.93299539 258.66015625 118.0546875 C234.34065637 97.22805539 207.89039538 78.85871269 179.6875 63.6875 C178.82640625 63.2234375 177.9653125 62.759375 177.078125 62.28125 C123.03118271 33.29518039 65.57160844 16.42839883 4.6875 9.6875 C3.48287109 9.5471936 3.48287109 9.5471936 2.25390625 9.40405273 C-42.92474451 4.17809174 -88.82817151 8.22636909 -133.3125 16.6875 Z " fill="#87C6E2" transform="translate(552.3125,46.3125)"/>
<path d="M0 0 C37.75773842 13.27354441 69.68855467 35.78310532 93.56396484 67.91162109 C94.18787109 68.74048828 94.81177734 69.56935547 95.45458984 70.42333984 C105.69270603 84.51271002 113.22816809 99.73701543 119.56396484 115.91162109 C119.8254834 116.57339355 120.08700195 117.23516602 120.35644531 117.91699219 C123.55776707 126.19244226 125.55104637 134.69746703 127.43896484 143.34912109 C127.78072754 144.8782312 127.78072754 144.8782312 128.12939453 146.43823242 C129.55585611 153.33411961 130.18675379 159.06817359 127.37646484 165.72412109 C124.48757773 169.21070899 121.66380743 170.63164208 117.16162109 171.23193359 C112.89895033 171.42423453 110.10111492 171.16030168 106.18896484 169.34912109 C99.68504376 163.3097658 98.62461789 156.45543289 97.18896484 148.03662109 C92.17160799 121.13882666 80.52820581 97.59392982 62.56396484 76.91162109 C61.83306641 76.05826172 61.10216797 75.20490234 60.34912109 74.32568359 C35.82024266 46.30499646 0.06342042 27.33971005 -36.83447266 22.46240234 C-43.26638189 21.59687382 -47.01130068 20.80211709 -51.43603516 15.91162109 C-54.14630744 11.43214328 -54.0882256 7.00836861 -53.43603516 1.91162109 C-44.66040182 -15.96466904 -14.4374331 -4.573119 0 0 Z " fill="#BCD583" transform="translate(583.43603515625,306.08837890625)"/>
<path d="M0 0 C0.33 0 0.66 0 1 0 C1.00410889 0.83845459 1.00821777 1.67690918 1.01245117 2.54077148 C1.17179016 21.23442134 2.37063029 38.78443659 7 57 C7.4640625 58.87945312 7.4640625 58.87945312 7.9375 60.796875 C15.12049341 86.57869061 30.20784671 109.46587607 47.03344727 129.88793945 C50.90704008 134.60146513 54.6163492 139.41208255 58.25 144.3125 C62.98970194 150.69712118 67.8953178 156.90101449 73 163 C73.9261135 164.11300487 74.85187887 165.22629949 75.77734375 166.33984375 C78.18014596 169.23058003 80.59020538 172.11503461 83 175 C83.33 168.73 83.66 162.46 84 156 C90.43364606 160.01058455 96.64915501 164.15118983 102.74609375 168.65234375 C106.78274542 171.59710368 110.92912187 174.38112101 115.0625 177.1875 C123.7853673 183.12001792 132.34715284 189.25364927 140.87646484 195.45996094 C144.28010898 197.928366 147.70164722 200.37153516 151.125 202.8125 C151.72352783 203.23942139 152.32205566 203.66634277 152.9387207 204.10620117 C154.2921802 205.07122205 155.6460386 206.03568344 157 207 C156.34 208.32 155.68 209.64 155 211 C154.67 210.01 154.34 209.02 154 208 C152.84886719 207.96261719 151.69773437 207.92523438 150.51171875 207.88671875 C120.01976006 206.71195957 82.38179505 199.97045453 58.2578125 179.6953125 C56.12539551 177.73869265 56.12539551 177.73869265 53.41015625 178.01171875 C51 178 51 178 49.18359375 176.26953125 C48.60738281 175.45871094 48.03117187 174.64789063 47.4375 173.8125 C44.16501681 169.44506496 40.72571574 165.41349816 37 161.4375 C36.47978271 160.87748291 35.95956543 160.31746582 35.42358398 159.74047852 C33.2528924 157.40483764 31.07445553 155.07815093 28.875 152.76953125 C14.61218922 137.40729548 5.07099677 119.58890978 -2 100 C-2.24008789 99.41299316 -2.48017578 98.82598633 -2.72753906 98.22119141 C-4.93971038 92.71580657 -6.08984727 87.20498018 -7.125 81.375 C-7.29386719 80.45976562 -7.46273438 79.54453125 -7.63671875 78.6015625 C-8.10144831 76.06933528 -8.55742654 73.53619044 -9 71 C-9.17869629 70.02458252 -9.35739258 69.04916504 -9.54150391 68.04418945 C-12.95738292 45.36442619 -8.74647355 22.29120573 -1 1 C-0.67 0.67 -0.34 0.34 0 0 Z " fill="#7ABA83" transform="translate(451,279)"/>
<path d="M0 0 C35.59103351 10.84148735 65.57831919 36.0891562 83.31933594 68.63964844 C90.62034589 82.73826387 98.65948461 100.51746689 96.40283203 116.73193359 C95.14775116 120.63662962 94.16309527 122.16173617 90.90283203 124.60693359 C85.62532103 126.30327642 79.58430168 127.31951845 74.43017578 124.74755859 C70.14706207 121.33790542 68.42519188 117.56725825 67.39501953 112.34521484 C62.60504832 89.47380896 52.80723543 71.42927277 36.40283203 54.73193359 C35.41283203 53.72259766 35.41283203 53.72259766 34.40283203 52.69287109 C23.56009413 42.38405589 10.38079603 35.67596081 -3.59716797 30.73193359 C-4.41572266 30.41611328 -5.23427734 30.10029297 -6.07763672 29.77490234 C-10.45650713 28.15575718 -14.65300328 27.40537471 -19.28466797 26.79443359 C-25.82285116 25.86476186 -29.45068652 24.11046709 -33.90966797 19.16943359 C-36.7689999 15.03928747 -37.01576407 11.67136758 -36.59716797 6.73193359 C-28.69690463 -8.19078605 -13.75858437 -3.78156623 0 0 Z " fill="#98C564" transform="translate(566.59716796875,351.26806640625)"/>
<path d="M0 0 C3.40211941 0.95259343 5.28461255 1.96215433 7.30859375 4.8984375 C10.54230764 10.96291028 12.58171095 17.449781 14.59375 23.99609375 C15.60937315 27.07868863 16.86999119 29.97549303 18.23828125 32.91796875 C21.7233096 40.43655884 24.67802957 48.15745192 27.6875 55.875 C28.27381156 57.37250431 28.86039847 58.86990084 29.44726562 60.3671875 C30.51954199 63.10333573 31.58998434 65.84018798 32.65893555 68.57763672 C33.46695511 70.63968264 34.29355344 72.69477828 35.15551758 74.73486328 C36.36982317 77.9919686 36.37537864 80.55902912 36 84 C33.38882396 87.30748965 31.37396185 88.81680509 27.1875 89.375 C24 89 24 89 21.4375 87.3125 C19 84 19 84 14 71 C2.78 70.67 -8.44 70.34 -20 70 C-20.66 72.97 -21.32 75.94 -22 79 C-22.96484375 81.55859375 -22.96484375 81.55859375 -23.9375 83.4375 C-24.25589844 84.07558594 -24.57429688 84.71367188 -24.90234375 85.37109375 C-26 87 -26 87 -29 89 C-33.36253463 89.56551375 -35.29752588 89.49322651 -38.9375 86.9375 C-41.42817876 83.39016965 -41.67391115 81.15021148 -41 77 C-39.68017854 72.79590851 -37.99792501 68.7564788 -36.3125 64.6875 C-35.56653503 62.84094921 -34.82063849 60.99436928 -34.07737732 59.14672852 C-33.55146193 57.83972837 -33.0242227 56.53326023 -32.4957428 55.22729492 C-29.23567921 47.15439744 -26.154337 39.01343184 -23.0625 30.875 C-21.49957902 26.76475247 -19.93532612 22.65505624 -18.3605957 18.54931641 C-17.51183334 16.33519345 -16.66830727 14.11904743 -15.83276367 11.89990234 C-15.31999878 10.56499756 -15.31999878 10.56499756 -14.796875 9.203125 C-14.51295898 8.45450195 -14.22904297 7.70587891 -13.93652344 6.93457031 C-11.06202529 0.99673837 -6.4661908 -0.92374154 0 0 Z " fill="#5FBFDE" transform="translate(417,643)"/>
<path d="M0 0 C1.301437 -0.01879967 1.301437 -0.01879967 2.62916565 -0.03797913 C3.55325729 -0.02472092 4.47734894 -0.01146271 5.42944336 0.00219727 C6.3895079 -0.00021469 7.34957245 -0.00262665 8.33872986 -0.00511169 C10.36355734 -0.00413423 12.38841187 0.00923537 14.41308594 0.03417969 C17.5125595 0.06852896 20.60918772 0.0548233 23.70874023 0.03540039 C25.67815341 0.0422979 27.64755923 0.05196942 29.61694336 0.06469727 C30.54305923 0.0597374 31.46917511 0.05477753 32.4233551 0.04966736 C38.82961263 0.16702405 38.82961263 0.16702405 42.03857422 2.54150391 C43.57187952 4.80068106 43.99905546 5.92592938 43.95678711 8.63110352 C43.96709961 9.29110352 43.97741211 9.95110352 43.98803711 10.63110352 C43.19622184 13.61205512 41.8723599 14.73126968 39.45678711 16.63110352 C36.15698242 17.08520508 36.15698242 17.08520508 32.28491211 17.02172852 C31.26128571 17.01323883 31.26128571 17.01323883 30.21697998 17.00457764 C28.04618949 16.98225988 25.87707505 16.93207859 23.70678711 16.88110352 C22.2315506 16.86103227 20.75628812 16.84278258 19.28100586 16.82641602 C15.67177439 16.78581724 12.06614704 16.70753702 8.45678711 16.63110352 C8.45678711 22.90110352 8.45678711 29.17110352 8.45678711 35.63110352 C10.2756543 35.58469727 12.09452148 35.53829102 13.96850586 35.49047852 C16.36041652 35.45295835 18.75234494 35.41655846 21.14428711 35.38110352 C22.3424707 35.34758789 23.5406543 35.31407227 24.77514648 35.27954102 C25.93208008 35.26665039 27.08901367 35.25375977 28.28100586 35.24047852 C29.87561646 35.20905762 29.87561646 35.20905762 31.50244141 35.17700195 C35.17683728 35.74177977 36.82298206 37.06179982 39.45678711 39.63110352 C40.08569336 41.63110352 40.08569336 41.63110352 40.01928711 43.63110352 C40.0212207 44.62110352 40.0212207 44.62110352 40.02319336 45.63110352 C39.19392415 48.55928167 37.81487348 49.73174417 35.45678711 51.63110352 C32.52416992 52.08520508 32.52416992 52.08520508 29.15991211 52.02172852 C27.95463867 52.00883789 26.74936523 51.99594727 25.50756836 51.98266602 C24.25331055 51.94915039 22.99905273 51.91563477 21.70678711 51.88110352 C20.43706055 51.86305664 19.16733398 51.84500977 17.85913086 51.82641602 C14.72469453 51.77928163 11.59064581 51.70753909 8.45678711 51.63110352 C8.45678711 58.23110352 8.45678711 64.83110352 8.45678711 71.63110352 C10.72038086 71.58469727 12.98397461 71.53829102 15.31616211 71.49047852 C17.51373046 71.45926438 19.71127391 71.43498741 21.90893555 71.41137695 C23.43378796 71.39128752 24.95856358 71.36401036 26.4831543 71.3293457 C28.67768309 71.28070556 30.8711918 71.25810956 33.06616211 71.24047852 C34.38583984 71.21953125 35.70551758 71.19858398 37.06518555 71.17700195 C40.45678711 71.63110352 40.45678711 71.63110352 42.88745117 73.44067383 C45.19033405 76.65496524 44.99864522 78.77036446 44.45678711 82.63110352 C43.05639648 85.31445312 43.05639648 85.31445312 40.45678711 87.63110352 C37.09634551 88.37686336 33.79330594 88.30782592 30.36303711 88.26000977 C29.37936157 88.26242172 28.39568604 88.26483368 27.38220215 88.26731873 C25.30432093 88.26634007 23.22641371 88.25294213 21.14868164 88.22802734 C17.9679305 88.19372369 14.7899579 88.20736634 11.60913086 88.22680664 C9.58958778 88.21990809 7.57005188 88.21023563 5.55053711 88.19750977 C4.5994104 88.20246964 3.64828369 88.2074295 2.66833496 88.21253967 C-3.91952375 88.09501678 -3.91952375 88.09501678 -7.11157227 85.72070312 C-9.7050709 81.93527427 -9.70871465 78.97599554 -9.73608398 74.50683594 C-9.74426147 73.77330399 -9.75243896 73.03977203 -9.76086426 72.28401184 C-9.78571811 69.85154031 -9.80223419 67.41912714 -9.81665039 64.98657227 C-9.82197407 64.15617243 -9.82729774 63.32577259 -9.83278275 62.47020912 C-9.85951437 58.07487536 -9.87888915 53.67957001 -9.89331055 49.28417969 C-9.90995824 44.74433452 -9.95473631 40.20521532 -10.00568199 35.66564465 C-10.03933889 32.17490302 -10.05088621 28.68433405 -10.05653763 25.19344521 C-10.06325452 23.52007817 -10.07848813 21.84672267 -10.10242844 20.17351341 C-10.13405157 17.82959221 -10.13412215 15.48763322 -10.12670898 13.14355469 C-10.14311432 12.45401703 -10.15951965 11.76447937 -10.17642212 11.05404663 C-10.12810847 7.31684559 -9.59372273 5.69680692 -7.29069519 2.70101929 C-4.48255714 0.5854063 -3.42752548 0.0043461 0 0 Z " fill="#4DB5DC" transform="translate(325.543212890625,643.368896484375)"/>
<path d="M0 0 C3.17864824 2.38868832 4.65839249 3.7978961 5.54296875 7.73828125 C4.6767625 11.43934434 3.69233869 13.12987233 0.85546875 15.67578125 C-3.79284825 17.25620903 -6.56712481 16.661573 -10.89453125 14.73828125 C-17.66821307 11.76899607 -23.8389833 11.68411686 -30.89453125 13.80078125 C-36.96923065 17.30541552 -41.87467392 21.01945732 -44.4765625 27.734375 C-46.83231063 38.10793254 -46.49339933 48.92584937 -41.06640625 58.2421875 C-37.33879419 62.96231415 -32.80443309 65.7891473 -27.14453125 67.67578125 C-19.96061899 68.33376721 -14.54201034 67.83515696 -8.10546875 64.58203125 C-5.2588284 63.26645244 -3.21634231 63.11727015 -0.14453125 63.67578125 C2.73046875 65.11328125 2.73046875 65.11328125 4.85546875 67.67578125 C5.70167296 70.8699042 5.73971062 73.48680573 4.85546875 76.67578125 C0.47753802 82.19224505 -7.54379849 83.83305656 -14.08203125 85.36328125 C-26.04035195 86.58351806 -37.16033427 84.67815018 -47.08203125 77.4375 C-57.98505242 68.12450275 -63.21444744 57.24287802 -64.46875 42.9921875 C-64.87036717 29.46184361 -61.05994548 17.40622644 -51.95703125 7.23046875 C-38.91143604 -5.43881121 -16.21807206 -10.01443794 0 0 Z " fill="#A2CA65" transform="translate(750.14453125,647.32421875)"/>
<path d="M0 0 C1.31848944 1.05479155 2.6182748 2.13338314 3.8984375 3.234375 C9.60636195 7.86689339 16.69316264 8.34417456 23.78515625 8.765625 C23.5509907 12.82449455 23.33203464 15.12223866 20.66015625 18.265625 C16.81560109 20.27147987 14.94911014 19.84250963 10.78515625 18.765625 C9.73328125 18.25 8.68140625 17.734375 7.59765625 17.203125 C1.50545991 14.41772893 -6.20324952 14.87085747 -12.52734375 16.765625 C-18.39227023 19.35596753 -22.03477532 24.4635243 -24.8828125 30.01953125 C-26.36875981 34.19848571 -26.7539996 37.56164619 -26.71484375 41.953125 C-26.70984863 42.69272461 -26.70485352 43.43232422 -26.69970703 44.19433594 C-26.46385152 51.70592721 -24.6343395 58.5851975 -19.79296875 64.50390625 C-14.04842945 69.73884932 -7.60089258 71.31284386 -0.05859375 71.13671875 C3.81437161 70.63131805 7.01683135 69.24447147 10.56640625 67.671875 C13.52325882 66.46414648 15.6403326 66.18054153 18.78515625 66.765625 C22.51916046 68.84007178 23.57462712 70.12234154 24.91015625 74.203125 C24.78515625 77.765625 24.78515625 77.765625 22.91015625 80.453125 C14.96412604 86.33318735 7.25797847 87.95576243 -2.40234375 88.015625 C-3.21509766 88.03625 -4.02785156 88.056875 -4.86523438 88.078125 C-16.55317749 88.15251127 -25.4739724 83.30811299 -33.96484375 75.515625 C-43.7558252 65.27030566 -45.61273313 51.18917406 -45.4921875 37.62109375 C-44.63629604 25.72299701 -38.79762935 15.56127795 -30.27734375 7.40234375 C-22.57346092 1.28884582 -9.73059497 -5.42304764 0 0 Z " fill="#38A0D1" transform="translate(224.21484375,644.234375)"/>
<path d="M0 0 C6.21451311 0.51264502 11.35002002 3.25598032 16.875 5.9375 C17.8964209 6.43185547 18.9178418 6.92621094 19.97021484 7.43554688 C34.11952838 14.39794279 46.25945019 22.50982686 58 33 C59.39556324 34.1878174 60.7913588 35.37536197 62.1875 36.5625 C71.58218033 44.89585661 79.49951011 53.97606594 87 64 C87.62648438 64.83144531 88.25296875 65.66289062 88.8984375 66.51953125 C99.12677125 80.61350287 106.66457285 95.82633787 113 112 C113.39227783 112.99265869 113.39227783 112.99265869 113.79248047 114.00537109 C116.99380223 122.28082116 118.98708152 130.78584593 120.875 139.4375 C121.2167627 140.96661011 121.2167627 140.96661011 121.56542969 142.52661133 C122.99189126 149.42249851 123.62278894 155.1565525 120.8125 161.8125 C118.50208967 164.60092626 116.36009344 165.69710663 113 167 C111.68 167 110.36 167 109 167 C108.84442627 166.175 108.68885254 165.35 108.52856445 164.5 C104.49392138 142.43127576 104.49392138 142.43127576 98 121 C97.72462402 120.2467041 97.44924805 119.4934082 97.16552734 118.71728516 C86.41472925 89.60126633 70.03292018 61.38124314 47.62329102 39.64697266 C45.92737154 37.92631199 44.40152794 36.12146576 42.875 34.25 C31.51385519 21.14681299 15.48199123 9.6283408 0 2 C0 1.34 0 0.68 0 0 Z " fill="#B5D15D" transform="translate(590,310)"/>
<path d="M0 0 C9.85528288 4.23085146 17.86986222 9.57768862 25.8984375 16.69921875 C26.60871094 17.31410156 27.31898438 17.92898438 28.05078125 18.5625 C39.79655739 29.42443556 49.83497423 46.98979013 51.078125 63.015625 C51.08443746 64.5779587 51.00471438 66.14049117 50.8984375 67.69921875 C47.27904755 66.39522061 44.51196721 64.84243791 41.4609375 62.51171875 C35.89666399 58.37590793 30.19952796 54.46398916 24.4609375 50.57421875 C16.41909537 45.11630832 8.43029113 39.59107335 0.48144531 33.9987793 C-7.02989797 28.72509666 -14.61120877 23.55639489 -22.20898438 18.40820312 C-23.09521484 17.80685547 -23.98144531 17.20550781 -24.89453125 16.5859375 C-25.6836792 16.05186279 -26.47282715 15.51778809 -27.28588867 14.9675293 C-29.1015625 13.69921875 -29.1015625 13.69921875 -30.1015625 12.69921875 C-30.70681028 7.98622373 -30.52459706 4.5301795 -28.3515625 0.26171875 C-20.59709905 -8.56975351 -9.31008909 -3.82930018 0 0 Z " fill="#8CC168" transform="translate(563.1015625,402.30078125)"/>
<path d="M0 0 C2.57822907 3.18139275 5.05893654 6.41902787 7.50024414 9.70629883 C11.87222226 15.54385898 16.31194211 20.40018987 22 25 C23.41927013 26.30968431 24.83581156 27.62233014 26.25 28.9375 C44.6348992 45.29021691 70.41607317 55.00166795 95 56 C95.83402344 56.0515625 96.66804688 56.103125 97.52734375 56.15625 C129.63675862 57.23707182 159.26207619 44.60004733 184 25 C184.67289063 24.47019531 185.34578125 23.94039062 186.0390625 23.39453125 C188.95596044 21.06753841 188.95596044 21.06753841 191 18 C191.99 18.33 192.98 18.66 194 19 C176.69316663 40.12251316 159.19091646 55.96702236 133.1875 65.375 C132.53104492 65.61379883 131.87458984 65.85259766 131.19824219 66.09863281 C120.75933212 69.67842778 110.41742064 70.3910464 99.4375 70.375 C98.77836609 70.37412384 98.11923218 70.37324768 97.44012451 70.37234497 C70.98474432 70.25665322 48.19124447 61.21604454 28 44 C27.26265625 43.40832031 26.5253125 42.81664062 25.765625 42.20703125 C16.43216049 34.44569285 9.14640037 24.6559494 3.3125 14.0625 C2.973396 13.46042725 2.63429199 12.85835449 2.28491211 12.23803711 C0.08491041 8.02394114 -0.31884433 4.71047385 0 0 Z " fill="#57B2DC" transform="translate(335,516)"/>
<path d="M0 0 C1.0064003 -0.00397797 2.0128006 -0.00795593 3.04969788 -0.01205444 C4.19446091 -0.02781525 5.33922394 -0.04357605 6.51867676 -0.05981445 C7.75102554 -0.0496933 8.98337433 -0.03957214 10.25306702 -0.02914429 C11.52291946 -0.03392792 12.79277191 -0.03871155 14.10110474 -0.04364014 C16.78763459 -0.04704401 19.4718913 -0.04033019 22.15809631 -0.01693726 C25.59291751 0.01152446 29.02578305 -0.00483572 32.46053219 -0.03479958 C35.7456128 -0.05726716 39.03046082 -0.04151021 42.31556702 -0.02914429 C43.54589157 -0.03926544 44.77621613 -0.0493866 46.04382324 -0.05981445 C55.53000803 0.07043027 55.53000803 0.07043027 58.63026428 2.98892212 C60.75875877 6.26246026 61.06949343 7.80147735 60.35072327 11.63491821 C58.98744202 14.30288696 58.98744202 14.30288696 56.35072327 16.63491821 C52.75253454 17.26298517 49.23920227 17.10487569 45.60072327 16.94741821 C44.61716858 16.92485962 43.63361389 16.90230103 42.62025452 16.87905884 C40.19552856 16.82020627 37.77390343 16.73805252 35.35072327 16.63491821 C35.35516449 17.45288879 35.35960571 18.27085937 35.36418152 19.11361694 C35.40426183 26.82362374 35.43470948 34.53357999 35.45434761 42.24366379 C35.46478317 46.20746049 35.47893819 50.17117107 35.50160217 54.13491821 C35.52333872 57.96041968 35.53529361 61.78583833 35.54047775 65.61139679 C35.54417205 67.07063348 35.5513861 68.52986566 35.56218338 69.98906708 C35.57670927 72.03355186 35.57870078 74.07769478 35.57777405 76.1222229 C35.58221527 77.28582336 35.58665649 78.44942383 35.5912323 79.64828491 C35.35592648 82.57030483 34.94286959 84.20554968 33.35072327 86.63491821 C30.13116338 88.93460384 27.22512794 89.1884046 23.35072327 88.63491821 C20.12542799 86.07566154 18.5328354 84.58742405 17.74945068 80.49006653 C17.76055374 79.31092178 17.7716568 78.13177704 17.78309631 76.91690063 C17.78236618 76.26268127 17.78163605 75.60846191 17.78088379 74.93441772 C17.78434989 72.78554521 17.82315662 70.63887765 17.86244202 68.49038696 C17.87177382 66.99538863 17.8788882 65.50037495 17.88388062 64.00535583 C17.90292209 60.08078392 17.95199645 56.15714523 18.00740051 52.23294067 C18.05865566 48.22448347 18.08140791 44.21587466 18.10658264 40.20718384 C18.16011958 32.34933489 18.24539592 24.49224282 18.35072327 16.63491821 C17.73551819 16.66110229 17.12031311 16.68728638 16.48646545 16.71426392 C13.69147919 16.81837742 10.89690069 16.8832857 8.10072327 16.94741821 C7.13263733 16.98931274 6.16455139 17.03120728 5.16712952 17.07437134 C-2.01152338 17.19814122 -2.01152338 17.19814122 -5.28990173 14.30288696 C-6.95615494 11.03262563 -7.25331033 9.25911976 -6.64927673 5.63491821 C-3.63472101 0.87108702 -3.63472101 0.87108702 0 0 Z " fill="#B1D164" transform="translate(763.6492767333984,643.3650817871094)"/>
<path d="M0 0 C0.7528125 -0.0103125 1.505625 -0.020625 2.28125 -0.03125 C5.40829362 0.71747875 6.50868136 1.99247312 8.5 4.5 C8.98101807 7.52459717 8.98101807 7.52459717 8.95410156 11.10449219 C8.95468567 11.75856552 8.95526978 12.41263885 8.95587158 13.08653259 C8.95309299 15.24052694 8.92201548 17.39312356 8.890625 19.546875 C8.88316172 21.04330693 8.87746919 22.53974864 8.87347412 24.03619385 C8.85822439 27.9688429 8.81894912 31.90089807 8.7746582 35.83331299 C8.73369074 39.84842902 8.71546001 43.86364131 8.6953125 47.87890625 C8.65245348 55.75287626 8.58421103 63.62636419 8.5 71.5 C9.82390747 71.46072388 9.82390747 71.46072388 11.17456055 71.4206543 C14.4641158 71.33519725 17.75248422 71.27264255 21.04272461 71.2253418 C22.46381291 71.20026853 23.88477313 71.16620001 25.30541992 71.12280273 C27.35367462 71.06182142 29.40021883 71.03372238 31.44921875 71.01171875 C32.67987061 70.98553467 33.91052246 70.95935059 35.1784668 70.93237305 C39.4339925 71.65961283 40.90457462 73.11344745 43.5 76.5 C43.56672747 80.30346553 43.1623489 82.52380904 41.02124023 85.67944336 C37.21173197 88.43024254 33.68873454 88.0922131 29.09765625 88.06640625 C28.18294052 88.07260483 27.26822479 88.07880341 26.32579041 88.08518982 C24.39339257 88.09228608 22.46093357 88.08911734 20.52856445 88.07641602 C17.57583718 88.06256257 14.62628712 88.09660744 11.67382812 88.13476562 C9.79427006 88.13571698 7.91470804 88.13385714 6.03515625 88.12890625 C5.15481216 88.14216446 4.27446808 88.15542267 3.3674469 88.16908264 C2.12607216 88.15028297 2.12607216 88.15028297 0.85961914 88.13110352 C0.13666153 88.13014175 -0.58629608 88.12917999 -1.3311615 88.12818909 C-4.81822182 87.11818616 -6.30725402 85.34333186 -8.5 82.5 C-8.99097404 79.73672812 -9.17678688 77.59062456 -9.13110352 74.83569336 C-9.13825882 74.08060989 -9.14541412 73.32552643 -9.15278625 72.54756165 C-9.16964365 70.06103319 -9.15029195 67.57631516 -9.12890625 65.08984375 C-9.12973514 63.35779166 -9.1321953 61.62573964 -9.13621521 59.89369202 C-9.13907105 56.26799779 -9.12439189 52.64292207 -9.09692383 49.01733398 C-9.06281549 44.37096441 -9.06886949 39.72569876 -9.0875864 35.07927608 C-9.09815579 31.50442813 -9.08921965 27.92983697 -9.07420158 24.35501289 C-9.06902055 22.64180832 -9.06950064 20.92857692 -9.07574654 19.2153759 C-9.08119922 16.82130133 -9.06082535 14.42880661 -9.03344727 12.03491211 C-9.04323608 10.97423019 -9.04323608 10.97423019 -9.05322266 9.89212036 C-8.98734267 6.50309421 -8.71172365 4.77240904 -6.60533142 2.06227112 C-4.18516696 0.26637666 -2.98517833 -0.04089285 0 0 Z " fill="#3AA5D4" transform="translate(266.5,643.5)"/>
<path d="M0 0 C0.9378685 -0.00004028 1.875737 -0.00008057 2.84202576 -0.00012207 C4.81980104 0.00522769 6.79757616 0.02278714 8.77514648 0.05175781 C11.80192996 0.09365775 14.82649066 0.09282101 17.85351562 0.0859375 C19.77735921 0.09642892 21.70119133 0.10936676 23.625 0.125 C24.5292421 0.12520142 25.43348419 0.12540283 26.36512756 0.12561035 C32.60140176 0.24311944 32.60140176 0.24311944 35.81420898 1.99047852 C37.67732154 4.07659278 37.78351308 5.25754222 37.74609375 8.03125 C37.75640625 8.79308594 37.76671875 9.55492187 37.77734375 10.33984375 C37.0308371 13.50700798 35.79845173 14.5917734 33.24609375 16.59375 C30.03808594 17.04785156 30.03808594 17.04785156 26.29296875 16.984375 C25.63274719 16.97871521 24.97252563 16.97305542 24.29229736 16.96722412 C22.19281112 16.9449123 20.09506005 16.89473314 17.99609375 16.84375 C16.56903515 16.82367794 15.14194967 16.80542839 13.71484375 16.7890625 C10.22406156 16.74847201 6.73700894 16.6701934 3.24609375 16.59375 C3.24609375 22.86375 3.24609375 29.13375 3.24609375 35.59375 C5.0765625 35.54734375 6.90703125 35.5009375 8.79296875 35.453125 C11.19399412 35.41560898 13.59503711 35.37920864 15.99609375 35.34375 C17.20265625 35.31023438 18.40921875 35.27671875 19.65234375 35.2421875 C20.8125 35.22929688 21.97265625 35.21640625 23.16796875 35.203125 C24.2362793 35.18217773 25.30458984 35.16123047 26.40527344 35.13964844 C29.92444092 35.70218294 31.09704752 36.8073736 33.24609375 39.59375 C33.24609375 40.25375 33.24609375 40.91375 33.24609375 41.59375 C17.40609375 41.59375 1.56609375 41.59375 -14.75390625 41.59375 C-14.90859375 32.8384375 -14.90859375 32.8384375 -15.06640625 23.90625 C-15.11192627 22.07231689 -15.15744629 20.23838379 -15.2043457 18.34887695 C-15.21895736 16.88494696 -15.23169643 15.42099657 -15.2421875 13.95703125 C-15.26776733 13.2053064 -15.29334717 12.45358154 -15.31970215 11.67907715 C-15.32280235 7.93217551 -14.87207507 5.77741631 -12.83300781 2.6081543 C-8.51092009 -0.21943417 -5.06278539 -0.09200184 0 0 Z " fill="#A4CC69" transform="translate(641.75390625,643.40625)"/>
<path d="M0 0 C15.84 0 31.68 0 48 0 C47.34 0.99 46.68 1.98 46 3 C43.11083984 3.34057617 43.11083984 3.34057617 39.4609375 3.29296875 C37.50800781 3.2784668 37.50800781 3.2784668 35.515625 3.26367188 C34.13541077 3.23860388 32.75520244 3.21320902 31.375 3.1875 C29.98699337 3.17245517 28.59897133 3.15876641 27.2109375 3.14648438 C23.80712611 3.11102801 20.4035151 3.05721974 17 3 C17 9.6 17 16.2 17 23 C19.26359375 22.95359375 21.5271875 22.9071875 23.859375 22.859375 C26.05694335 22.82816086 28.2544868 22.8038839 30.45214844 22.78027344 C31.97700085 22.76018401 33.50177648 22.73290684 35.02636719 22.69824219 C37.22089598 22.64960204 39.41440469 22.62700604 41.609375 22.609375 C42.92905273 22.58842773 44.24873047 22.56748047 45.60839844 22.54589844 C49 23 49 23 51.42871094 24.89941406 C53.1314967 27.17579204 53.54382814 28.19499932 53.5 31 C53.5103125 31.66 53.520625 32.32 53.53125 33 C52.70976232 36.09265951 51.59211691 37.08579122 49 39 C45.71269473 39.60901573 42.46042213 39.56031276 39.125 39.53125 C37.68278076 39.53699036 37.68278076 39.53699036 36.21142578 39.54284668 C34.1806534 39.54556602 32.14984601 39.53820329 30.11914062 39.52148438 C27.0109243 39.50007525 23.90501944 39.52128546 20.796875 39.546875 C18.82291157 39.54423173 16.84894957 39.53910676 14.875 39.53125 C13.94574707 39.53934692 13.01649414 39.54744385 12.05908203 39.55578613 C5.61879191 39.4622016 5.61879191 39.4622016 2.4453125 37.09179688 C-0.23081917 33.21863874 -0.13101471 30.16523986 -0.09765625 25.5859375 C-0.09664917 24.93923096 -0.09564209 24.29252441 -0.09460449 23.6262207 C-0.08937024 21.20912911 -0.07540898 18.79206279 -0.0625 16.375 C-0.041875 10.97125 -0.02125 5.5675 0 0 Z " fill="#8CC165" transform="translate(627,692)"/>
<path d="M0 0 C0.75925781 0.05542969 1.51851563 0.11085938 2.30078125 0.16796875 C7.458902 1.56091462 10.34842342 5.37667027 12.95703125 9.8125 C13.53243652 10.77712158 14.1078418 11.74174316 14.70068359 12.7355957 C15.29445801 13.75097412 15.88823242 14.76635254 16.5 15.8125 C17.73622629 17.89054679 18.97449213 19.96738167 20.21484375 22.04296875 C20.80894043 23.0386084 21.40303711 24.03424805 22.01513672 25.06005859 C24.66333305 29.4185645 27.51126432 33.6185221 30.4296875 37.80078125 C31.6875 39.8125 31.6875 39.8125 31.6875 41.8125 C15.43099776 43.19276906 15.43099776 43.19276906 11.15625 39.80859375 C9.69066071 37.51322229 8.57512193 35.38354283 7.6875 32.8125 C7.3575 35.7825 7.0275 38.7525 6.6875 41.8125 C0.7475 41.8125 -5.1925 41.8125 -11.3125 41.8125 C-11.42749626 36.77566374 -11.5269576 31.74340361 -11.5871582 26.70629883 C-11.61225714 24.99422755 -11.64634429 23.28226296 -11.68969727 21.57055664 C-11.75055739 19.10536355 -11.77875432 16.64159015 -11.80078125 14.17578125 C-11.82658768 13.41413162 -11.8523941 12.65248199 -11.87898254 11.86775208 C-11.88111352 7.8029532 -11.50480642 6.04915029 -8.90698242 2.85229492 C-5.54151691 0.20634928 -4.18045152 -0.37237635 0 0 Z " fill="#7CCBD7" transform="translate(472.3125,643.1875)"/>
<path d="M0 0 C0.72960937 0.02964844 1.45921875 0.05929687 2.2109375 0.08984375 C9.68922797 3.10294137 14.19394757 13.47492788 18.1875 20 C18.83396484 21.04607422 19.48042969 22.09214844 20.14648438 23.16992188 C21.40207846 25.20211942 22.65433582 27.23638334 23.90283203 29.27294922 C25.44006684 31.76294708 27.01044792 34.22808245 28.58984375 36.69140625 C30.625 40.0625 30.625 40.0625 30.625 42.0625 C14.21513453 43.28940583 14.21513453 43.28940583 10.31640625 40.28125 C9.09172149 38.2170929 8.2353395 36.37972114 7.625 34.0625 C7.295 36.7025 6.965 39.3425 6.625 42.0625 C0.685 42.0625 -5.255 42.0625 -11.375 42.0625 C-11.44399477 37.16898224 -11.50368855 32.27716212 -11.53979492 27.38354492 C-11.55485114 25.72007519 -11.57530063 24.05664495 -11.60131836 22.39331055 C-11.63784207 19.99778478 -11.65475782 17.60278533 -11.66796875 15.20703125 C-11.68345261 14.4672554 -11.69893646 13.72747955 -11.71488953 12.96528625 C-11.71634389 8.47016595 -11.13932862 5.64065978 -8.375 2.0625 C-5.55616264 0.13533569 -3.37906957 -0.24305588 0 0 Z " fill="#9AC86F" transform="translate(555.375,642.9375)"/>
<path d="M0 0 C2.91889148 -0.16216064 5.82879225 -0.28091202 8.75 -0.375 C9.9875 -0.45041016 9.9875 -0.45041016 11.25 -0.52734375 C13.64221876 -0.58522001 15.67372905 -0.57087094 18 0 C20.578125 3.0234375 20.578125 3.0234375 22 6 C22.33 4.02 22.66 2.04 23 0 C28.94 0 34.88 0 41 0 C41.06901579 4.60872083 41.12870199 9.2156363 41.16479492 13.82446289 C41.17984622 15.39093107 41.20029207 16.95735736 41.22631836 18.52368164 C41.26286433 20.78021606 41.27976261 23.03619153 41.29296875 25.29296875 C41.30845261 25.98899704 41.32393646 26.68502533 41.33988953 27.40214539 C41.34139243 31.78170025 40.68834581 34.51834504 38 38 C35.60961794 39.19519103 33.91758604 39.26991328 31.25 39.375 C30.40953125 39.42398438 29.5690625 39.47296875 28.703125 39.5234375 C23.94870098 38.60278314 21.21812512 35.73336132 18.52929688 31.90722656 C17.00149615 29.44781509 15.55346158 26.95585617 14.125 24.4375 C13.083178 22.64570932 12.03890754 20.85534003 10.9921875 19.06640625 C10.48655273 18.20031738 9.98091797 17.33422852 9.45996094 16.44189453 C6.92897959 12.20863778 4.14775973 8.16324872 1.328125 4.1171875 C0 2 0 2 0 0 Z " fill="#89C067" transform="translate(573,692)"/>
<path d="M0 0 C16.40986547 -1.22690583 16.40986547 -1.22690583 20.30859375 1.78125 C21.53327851 3.8454071 22.3896605 5.68277886 23 8 C23.33 5.36 23.66 2.72 24 0 C29.61 0 35.22 0 41 0 C41.09201487 4.75154551 41.1715883 9.49998115 41.21972656 14.25170898 C41.23979892 15.86672458 41.2670633 17.48166789 41.30175781 19.09643555 C41.35047215 21.42254501 41.37301154 23.74769093 41.390625 26.07421875 C41.41127014 26.79212082 41.43191528 27.51002289 41.45318604 28.24967957 C41.45480378 31.89253743 41.10047711 33.84485457 39.10058594 36.93286133 C35.91027094 40.07237749 33.68916875 40.19254249 29.265625 40.5234375 C23.38735431 39.16535427 20.42208734 34.36620276 17.34375 29.578125 C16.05189502 27.47522815 14.77091228 25.36561963 13.5 23.25 C12.21999837 21.15028015 10.9387657 19.0513102 9.65625 16.953125 C9.04523438 15.94701172 8.43421875 14.94089844 7.8046875 13.90429688 C5.65319916 10.44189086 3.38012212 7.07676274 1.04882812 3.73339844 C0 2 0 2 0 0 Z " fill="#76C8D6" transform="translate(490,692)"/>
<path d="M0 0 C0.33 0 0.66 0 1 0 C1.00410889 0.83845459 1.00821777 1.67690918 1.01245117 2.54077148 C1.17179016 21.23442134 2.37063029 38.78443659 7 57 C7.4640625 58.87945312 7.4640625 58.87945312 7.9375 60.796875 C13.76573679 81.71608205 25.25756378 101.5791814 38 119 C32.43546296 119 28.76001208 113.75466356 25 110 C8.33946695 91.92319288 -1.89472406 71.77844313 -8 48 C-8.33 53.61 -8.66 59.22 -9 65 C-9.33 65 -9.66 65 -10 65 C-10.51947713 42.24690156 -8.80632829 22.45571669 -1 1 C-0.67 0.67 -0.34 0.34 0 0 Z " fill="#A2CD9D" transform="translate(451,279)"/>
<path d="M0 0 C11.11816394 -0.65400964 22.23349012 1.91083678 31 9 C35.88897451 14.26811947 38.14806312 18.41463494 38.0625 25.6875 C38.05347656 26.68136719 38.04445312 27.67523437 38.03515625 28.69921875 C38.02355469 29.45847656 38.01195312 30.21773437 38 31 C33 26 33 26 30.8125 23.625 C26.86702936 19.94256074 22.46863774 17.01090737 18 14 C18.99 14.763125 19.98 15.52625 21 16.3125 C26.44214238 20.96608706 32.80298768 27.71532503 34 35 C25.31343718 35.56042341 19.03819946 33.64036118 11.75 28.875 C4.83302439 21.6436164 0.18203666 12.31180578 -0.0703125 2.17578125 C-0.04710937 1.45777344 -0.02390625 0.73976563 0 0 Z " fill="#6EC0E0" transform="translate(216,615)"/>
<path d="M0 0 C4.00538252 0.64372219 5.65945826 1.72195826 8.5 4.5625 C10.08645357 7.73540713 9.62078213 11.15075384 9.59765625 14.6328125 C9.5962413 15.42904022 9.59482635 16.22526794 9.59336853 17.04562378 C9.58776345 19.5929538 9.57521014 22.14019647 9.5625 24.6875 C9.55748565 26.41275915 9.55292263 28.13801967 9.54882812 29.86328125 C9.53864253 34.09641504 9.5190682 38.32935954 9.5 42.5625 C3.56 42.5625 -2.38 42.5625 -8.5 42.5625 C-8.61498002 37.38328874 -8.71444858 32.20852493 -8.7746582 27.02905273 C-8.79976061 25.26848324 -8.83385028 23.50801753 -8.87719727 21.74780273 C-8.93804115 19.21311821 -8.96625113 16.67981425 -8.98828125 14.14453125 C-9.01408768 13.36100784 -9.0398941 12.57748444 -9.06648254 11.7702179 C-9.06862521 7.56953742 -8.843954 6.00903359 -6.18823242 2.5612793 C-3.5 0.5625 -3.5 0.5625 0 0 Z " fill="#A3CC72" transform="translate(604.5,642.4375)"/>
<path d="M0 0 C3.32961021 0.55493503 5.30091917 1.49496853 8 3.5 C9.61301773 6.72603545 9.12053599 10.24710038 9.09765625 13.7890625 C9.0962413 14.60748627 9.09482635 15.42591003 9.09336853 16.26913452 C9.0877629 18.88779325 9.07520948 21.50636704 9.0625 24.125 C9.05748572 25.89843627 9.05292269 27.67187387 9.04882812 29.4453125 C9.03864174 33.79693419 9.0190675 38.14837182 9 42.5 C3.39 42.5 -2.22 42.5 -8 42.5 C-8.11498002 37.32078874 -8.21444858 32.14602493 -8.2746582 26.96655273 C-8.29976061 25.20598324 -8.33385028 23.44551753 -8.37719727 21.68530273 C-8.43804115 19.15061821 -8.46625113 16.61731425 -8.48828125 14.08203125 C-8.51408768 13.29850784 -8.5398941 12.51498444 -8.56648254 11.7077179 C-8.5686365 7.48490315 -8.34992293 5.94880706 -5.65698242 2.49487305 C-3 0.5 -3 0.5 0 0 Z " fill="#8ACFCE" transform="translate(522,642.5)"/>
<path d="M0 0 C5.61 0 11.22 0 17 0 C17.04595514 4.76912207 17.08576684 9.53747342 17.10986328 14.30664062 C17.11991023 15.92841192 17.13355015 17.55016516 17.15087891 19.171875 C17.17518493 21.50525374 17.18649613 23.8383926 17.1953125 26.171875 C17.20563507 26.89493835 17.21595764 27.61800171 17.22659302 28.36297607 C17.22741259 32.05445423 17.19510692 34.94490728 15 38 C11.24952518 40.50031654 9.44143734 40.53603554 5 40 C1.32930002 37.25204412 0.1208855 35.80512342 -0.56762695 31.21948242 C-0.56684241 29.76457099 -0.5390037 28.30949596 -0.48828125 26.85546875 C-0.48120651 26.08568192 -0.47413177 25.31589508 -0.46684265 24.52278137 C-0.43896925 22.07667697 -0.37625137 19.63290616 -0.3125 17.1875 C-0.28740768 15.52412173 -0.26459613 13.86070738 -0.24414062 12.19726562 C-0.19342534 8.1298998 -0.09558199 4.06754472 0 0 Z " fill="#83C067" transform="translate(545,692)"/>
<path d="M0 0 C5.61 0 11.22 0 17 0 C17.04595514 4.76912207 17.08576684 9.53747342 17.10986328 14.30664062 C17.11991023 15.92841192 17.13355015 17.55016516 17.15087891 19.171875 C17.17518493 21.50525374 17.18649613 23.8383926 17.1953125 26.171875 C17.20563507 26.89493835 17.21595764 27.61800171 17.22659302 28.36297607 C17.22741432 32.06221368 17.1383644 34.90332098 15 38 C11.77706714 40.3020949 8.88003676 40.47510654 5 40 C2.33911133 38.49316406 2.33911133 38.49316406 0 36 C-0.44649301 33.04335206 -0.58732562 30.67737454 -0.48828125 27.734375 C-0.48120651 26.94097717 -0.47413177 26.14757935 -0.46684265 25.33013916 C-0.43891048 22.80245635 -0.37617989 20.27701012 -0.3125 17.75 C-0.28741535 16.03388622 -0.26460246 14.31773762 -0.24414062 12.6015625 C-0.19334191 8.39949247 -0.09550548 4.20224105 0 0 Z " fill="#67C2DB" transform="translate(462,692)"/>
<path d="M0 0 C0.66 0 1.32 0 2 0 C2.38671875 1.18335938 2.7734375 2.36671875 3.171875 3.5859375 C6.90918749 14.99593055 6.90918749 14.99593055 11.3359375 26.15234375 C12 28 12 28 12 31 C5.07 31 -1.86 31 -9 31 C-8.2990155 26.09310848 -7.71558069 22.97885367 -5.96484375 18.59765625 C-4.60688505 14.94161359 -3.46565495 11.22491882 -2.3125 7.5 C-2.08594727 6.7685376 -1.85939453 6.0370752 -1.62597656 5.28344727 C-1.08220366 3.52284718 -0.54084906 1.76150048 0 0 Z " fill="#F5FBFA" transform="translate(413,666)"/>
<path d="M0 0 C0.66 0.33 1.32 0.66 2 1 C-3.41957308 7.38090465 -9.20648943 13.26484069 -15.21484375 19.08789062 C-18.41273722 22.23381068 -21.32384858 25.29101724 -23.8671875 28.99609375 C-24.92292969 30.48302734 -24.92292969 30.48302734 -26 32 C-26.66 32 -27.32 32 -28 32 C-28.99 34.475 -28.99 34.475 -30 37 C-30.66 37 -31.32 37 -32 37 C-32.25523437 37.56203125 -32.51046875 38.1240625 -32.7734375 38.703125 C-34.15692781 41.29386482 -35.79938583 43.45107845 -37.625 45.75 C-38.25664062 46.54921875 -38.88828125 47.3484375 -39.5390625 48.171875 C-40.02117187 48.77515625 -40.50328125 49.3784375 -41 50 C-41 46.00187996 -39.07470837 44.11709181 -36.6875 41.125 C-36.23963135 40.55418701 -35.7917627 39.98337402 -35.33032227 39.39526367 C-24.36066031 25.51633099 -12.61278423 12.40060655 0 0 Z " fill="#8BCCBD" transform="translate(430,290)"/>
<path d="M0 0 C0.66 0.33 1.32 0.66 2 1 C-3.34388455 7.33480354 -9.08833812 13.19539034 -15 19 C-15.99 18.67 -16.98 18.34 -18 18 C-12.06 12.06 -6.12 6.12 0 0 Z " fill="#96D1B6" transform="translate(430,290)"/>
<path d="M0 0 C0.66 0.33 1.32 0.66 2 1 C1.56131592 1.42821045 1.12263184 1.8564209 0.6706543 2.29760742 C-1.32906009 4.25554541 -3.32080319 6.22140811 -5.3125 8.1875 C-6.00279297 8.86103516 -6.69308594 9.53457031 -7.40429688 10.22851562 C-10.85403541 13.64492335 -13.58470882 16.75469298 -16 21 C-16.66 21 -17.32 21 -18 21 C-14.19136341 12.66515761 -6.44407205 6.31256037 0 0 Z " fill="#6EC5CB" transform="translate(521,494)"/>
<path d="M0 0 C0 3 0 3 -1.53125 4.82421875 C-2.1809375 5.43910156 -2.830625 6.05398438 -3.5 6.6875 C-4.1496875 7.31011719 -4.799375 7.93273437 -5.46875 8.57421875 C-5.9740625 9.04472656 -6.479375 9.51523437 -7 10 C-7.66 9.67 -8.32 9.34 -9 9 C-6.03 6.03 -3.06 3.06 0 0 Z M-11 10 C-10.34 10 -9.68 10 -9 10 C-10.36983503 13.16115776 -10.9890638 13.9927092 -14 16 C-13.42655063 13.13275314 -13.1385485 12.1385485 -11 10 Z " fill="#5BBDD8" transform="translate(497,521)"/>
<path d="M0 0 C0.99 0.33 1.98 0.66 3 1 C0.36 4.3 -2.28 7.6 -5 11 C-5.66 9.68 -6.32 8.36 -7 7 C-5.47005208 5.76302083 -3.94010417 4.52604167 -2.41015625 3.2890625 C-0.86733563 2.0333609 -0.86733563 2.0333609 0 0 Z " fill="#8DCCD9" transform="translate(526,534)"/>
<path d="M0 0 C0.66 0.33 1.32 0.66 2 1 C0.92807816 2.3218362 -0.15802695 3.63217927 -1.25 4.9375 C-1.85328125 5.66839844 -2.4565625 6.39929688 -3.078125 7.15234375 C-5.10741134 9.10326334 -6.254407 9.61731779 -9 10 C-8.06409496 8.8944811 -7.12620142 7.79064547 -6.1875 6.6875 C-5.66542969 6.07261719 -5.14335937 5.45773437 -4.60546875 4.82421875 C-3.12827531 3.14575321 -1.59960869 1.56117966 0 0 Z " fill="#44AED6" transform="translate(196,650)"/>
<path d="M0 0 C-1.49879868 3.11288957 -3.21167379 6.04537409 -5 9 C-5.33 9.66 -5.66 10.32 -6 11 C-6.66 11 -7.32 11 -8 11 C-5.46153846 0 -5.46153846 0 0 0 Z " fill="#74CCDC" transform="translate(410,644)"/>
<path d="M0 0 C-1.44253657 3.36591866 -3.33264727 5.51047079 -6 8 C-6.99 7.67 -7.98 7.34 -9 7 C-7.88121617 5.82737096 -6.75476949 4.66204862 -5.625 3.5 C-4.68527344 2.52546875 -4.68527344 2.52546875 -3.7265625 1.53125 C-2 0 -2 0 0 0 Z " fill="#AED369" transform="translate(704,651)"/>
<path d="M0 0 C2.64 0 5.28 0 8 0 C7.67 2.31 7.34 4.62 7 7 C6.01 7 5.02 7 4 7 C4.66 5.35 5.32 3.7 6 2 C3.03 1.505 3.03 1.505 0 1 C0 0.67 0 0.34 0 0 Z " fill="#62BBDD" transform="translate(240,653)"/>
<path d="M0 0 C0.66 0 1.32 0 2 0 C3.01405257 1.32267727 4.01268258 2.65724831 5 4 C5.99 4.66 6.98 5.32 8 6 C5.125 6.125 5.125 6.125 2 6 C1.34 5.34 0.68 4.68 0 4 C0 2.68 0 1.36 0 0 Z " fill="#32A1CD" transform="translate(259,724)"/>
<path d="M0 0 C0 3.58912412 -0.66436554 4.10857029 -3 6.6875 C-3.556875 7.31011719 -4.11375 7.93273437 -4.6875 8.57421875 C-5.120625 9.04472656 -5.55375 9.51523437 -6 10 C-6.33 8.68 -6.66 7.36 -7 6 C-4.69 4.02 -2.38 2.04 0 0 Z " fill="#B0DAB5" transform="translate(451,272)"/>
<path d="M0 0 C0.33 0.66 0.66 1.32 1 2 C1.66 2.33 2.32 2.66 3 3 C1.26440562 6.057952 -0.38472619 8.63379989 -3 11 C-2.32829194 7.1936543 -1.27253436 3.64793184 0 0 Z " fill="#66C7E0" transform="translate(388,689)"/>
<path d="M0 0 C1.32 0.66 2.64 1.32 4 2 C3.34 3.32 2.68 4.64 2 6 C1.67 5.01 1.34 4.02 1 3 C-0.98 3 -2.96 3 -5 3 C-5 2.67 -5 2.34 -5 2 C-3.35 2 -1.7 2 0 2 C0 1.34 0 0.68 0 0 Z " fill="#A1D2A3" transform="translate(604,484)"/>
<path d="M0 0 C3.79588866 0.54226981 5.47211993 2.20127563 8 5 C6.68 5.33 5.36 5.66 4 6 C2.68 4.02 1.36 2.04 0 0 Z " fill="#7EC4AF" transform="translate(498,451)"/>
<path d="M0 0 C0.66 0 1.32 0 2 0 C1.64950425 3.24208567 1.43778819 4.61527704 -1.0625 6.8125 C-1.701875 7.204375 -2.34125 7.59625 -3 8 C-1.125 2.25 -1.125 2.25 0 0 Z " fill="#64BDD9" transform="translate(350,401)"/>
</svg>
