<?xml version="1.0" encoding="UTF-8"?>
<svg version="1.1" xmlns="http://www.w3.org/2000/svg" width="1024" height="1024">
<path d="M0 0 C337.92 0 675.84 0 1024 0 C1024 337.92 1024 675.84 1024 1024 C686.08 1024 348.16 1024 0 1024 C0 686.08 0 348.16 0 0 Z " fill="#F9F9F9" transform="translate(0,0)"/>
<path d="M0 0 C0.99 0 1.98 0 3 0 C2.97905273 1.25321045 2.95810547 2.5064209 2.93652344 3.79760742 C2.86278933 8.55578666 2.81772791 13.31391846 2.78027344 18.07250977 C2.7604557 20.1116593 2.73339352 22.15075442 2.69824219 24.18969727 C2.37567126 43.41587351 4.3428959 61.3187358 11.6875 79.25 C12.12175293 80.34135254 12.55600586 81.43270508 13.00341797 82.55712891 C20.42013453 100.82008624 30.38119912 116.63598664 42.53710938 132.13085938 C44.14137626 134.18063696 45.73537735 136.2381349 47.328125 138.296875 C54.36714659 147.38812939 61.48386668 156.41207015 68.69091797 165.37060547 C71.19781309 168.49089977 73.6893253 171.62351564 76.18359375 174.75390625 C78.42606675 177.52685674 80.71696029 180.26035235 83 183 C83.33 176.73 83.66 170.46 84 164 C91.14586074 168.42842074 98.04529892 173.09283945 104.89428711 177.96191406 C111.06746967 182.34976472 117.27807691 186.68158529 123.5 191 C130.55295725 195.90064361 137.60166572 200.80696367 144.625 205.75 C145.6449707 206.46542969 145.6449707 206.46542969 146.68554688 207.1953125 C150.22025612 209.68870577 153.65269694 212.25546799 157 215 C155.42426697 219.28276157 152.16189519 221.68524406 148.75 224.5 C147.47767237 225.56878164 146.20554255 226.63779879 144.93359375 227.70703125 C144.28116699 228.25182129 143.62874023 228.79661133 142.95654297 229.35791016 C140.47560009 231.44011902 138.0229167 233.55388092 135.57104492 235.67016602 C130.04150422 240.44124688 124.44718855 245.11850915 118.77734375 249.72265625 C115.65602935 252.28204626 112.57573754 254.88620955 109.5 257.5 C105.37258306 261.00164333 101.23507559 264.48960511 97.0625 267.9375 C95.81146484 268.97197266 95.81146484 268.97197266 94.53515625 270.02734375 C91.79462074 272.15980975 88.88925749 274.07382834 86 276 C86 268.74 86 261.48 86 254 C85.34 254 84.68 254 84 254 C83.75121094 254.5465625 83.50242187 255.093125 83.24609375 255.65625 C77.98453989 265.55258955 69.67378329 273.94588342 62 282 C61.26007813 282.804375 60.52015625 283.60875 59.7578125 284.4375 C46.16591154 298.77620871 27.83625974 307.72339304 9 313 C8.35659668 313.18618896 7.71319336 313.37237793 7.05029297 313.56420898 C0.08309358 315.37150211 -6.8370435 315.34505255 -14 315.3125 C-15.2893042 315.30686035 -16.5786084 315.3012207 -17.90698242 315.29541016 C-48.53931064 314.90666037 -75.43685932 302.99013356 -97 281 C-117.31399305 258.58143545 -125.30811137 231.92527675 -124.18652344 202.00390625 C-121.22578591 154.32208095 -91.01491195 103.71420134 -62.4765625 66.92529297 C-60.93706493 64.91793882 -59.43374259 62.88742605 -57.9375 60.84765625 C-52.67149822 53.68067052 -47.30781095 46.86090124 -41.21875 40.3671875 C-39.3099506 38.33068673 -37.49017421 36.25462983 -35.6875 34.125 C-27.97203413 25.28398381 -19.57538871 17.13801131 -10.33984375 9.90234375 C-7.94523916 8.03101216 -7.94523916 8.03101216 -5.81640625 5.75390625 C-4 4 -4 4 -2 4 C-2 3.34 -2 2.68 -2 2 C-1.34 2 -0.68 2 0 2 C0 1.34 0 0.68 0 0 Z " fill="#5BB5CA" transform="translate(451,271)"/>
<path d="M0 0 C1.50723633 0.26901123 1.50723633 0.26901123 3.04492188 0.54345703 C38.71403511 7.19295466 70.81363112 25.4212334 96.875 50.3125 C97.72964844 51.11429687 98.58429688 51.91609375 99.46484375 52.7421875 C127.26157273 79.52892475 151.3747588 122.61429213 152.9765625 161.796875 C152.74257053 167.1606909 151.00111404 170.12212834 147.34765625 174 C143.86046324 177.10794921 140.10537171 176.64050127 135.640625 176.59375 C130.77077512 176.09851103 128.14818226 173.85850703 125.125 170.1875 C124.00896706 167.62062423 123.47146338 165.58394923 122.96484375 162.859375 C119.89344774 147.01487177 116.13932816 131.77123625 108.875 117.3125 C108.54661133 116.63171387 108.21822266 115.95092773 107.87988281 115.24951172 C97.50855333 93.78292804 82.02946087 74.59224331 62.875 60.3125 C62.35502441 59.91756348 61.83504883 59.52262695 61.29931641 59.11572266 C38.47194522 41.83858866 12.40917728 30.75916785 -16.1640625 27.56347656 C-21.72579264 26.81795708 -24.29369217 25.20680393 -28.125 21.3125 C-31.00266275 17.03759059 -30.76100736 12.28277976 -30.125 7.3125 C-23.95714459 -5.25164991 -11.64135899 -2.10136395 0 0 Z " fill="#BDD584" transform="translate(560.125,300.6875)"/>
<path d="M0 0 C1.11391382 3.34174146 0.90042176 4.08348362 -0.109375 7.32421875 C-0.36831543 8.17886719 -0.62725586 9.03351563 -0.89404297 9.9140625 C-1.17650879 10.82929688 -1.45897461 11.74453125 -1.75 12.6875 C-13.19816096 51.83239741 -8.87967953 90.29075457 10.29882812 126.44873047 C12.9310053 131.16214007 15.84227568 135.62393153 19 140 C19.42748535 140.5966748 19.8549707 141.19334961 20.29541016 141.80810547 C25.22465675 148.58924389 30.55933295 154.71481445 36.5625 160.5625 C46.29205119 170.07371424 53.07255378 179.77912979 59.08813477 191.95556641 C62.65030649 198.90597432 67.17398136 204.1046564 72.7265625 209.53125 C75 212 75 212 75 215 C72.76953125 217.3046875 72.76953125 217.3046875 69.8125 219.875 C63.900765 225.05073587 58.72494588 230.2185496 54 236.5 C44.82187287 248.37304173 34.7276546 258.02567095 22 266 C21.01257813 266.63679688 20.02515625 267.27359375 19.0078125 267.9296875 C4.08307623 277.15372875 -10.99831705 280.35701124 -28.3125 280.375 C-29.54162109 280.39949219 -30.77074219 280.42398437 -32.03710938 280.44921875 C-51.59544751 280.51114489 -67.49240025 271.79181574 -81.6875 258.8125 C-97.88274286 241.66692505 -103.7418273 218.01059021 -103.09765625 195.03515625 C-102.75253677 187.84286626 -102.22954017 180.99806326 -98 175 C-94.87139505 173.43569752 -92.44397075 173.64372716 -89 174 C-86.5 175.9375 -86.5 175.9375 -85 179 C-84.90389852 183.0214773 -85.77955549 186.8527231 -86.53515625 190.78515625 C-89.15764966 208.92223249 -85.71063394 227.66744056 -75.1875 242.8125 C-69.3728707 250.31455408 -63.46211739 255.00866826 -55.0625 259.3125 C-54.40636719 259.65047607 -53.75023437 259.98845215 -53.07421875 260.33666992 C-44.81728522 264.36416875 -36.80394706 265.37015144 -27.6875 265.3125 C-26.76396729 265.30758545 -25.84043457 265.3026709 -24.88891602 265.29760742 C-17.89625802 265.17783858 -11.6125497 264.38437924 -5 262 C-4.04480469 261.67128906 -3.08960938 261.34257813 -2.10546875 261.00390625 C11.70711728 255.77214037 22.56693409 247.1880906 33 237 C33.93328125 236.14019531 34.8665625 235.28039062 35.828125 234.39453125 C43.69767291 226.97368563 47.31290319 221.26783639 47.6875 210.3125 C47.62618561 196.89879797 40.0485531 187.21042346 31 178 C29.84390258 176.69653192 28.69746949 175.38440564 27.5625 174.0625 C25.67288603 171.8781756 23.75898467 169.74718671 21.765625 167.65625 C-6.61694737 137.64665119 -22.90893086 99.01931319 -22.09765625 57.71191406 C-21.79926691 49.42564201 -20.0319484 41.60044373 -17.73046875 33.65625 C-16.58335219 29.48491706 -15.7840469 25.2523014 -15 21 C-14.34 21 -13.68 21 -13 21 C-12.95875 20.195625 -12.9175 19.39125 -12.875 18.5625 C-11.12989328 11.45742264 -6.31821491 5.86236791 -1 1 C-0.67 0.67 -0.34 0.34 0 0 Z " fill="#F6F8F8" transform="translate(450,277)"/>
<path d="M0 0 C0.99 0 1.98 0 3 0 C2.97905273 1.25321045 2.95810547 2.5064209 2.93652344 3.79760742 C2.86278933 8.55578666 2.81772791 13.31391846 2.78027344 18.07250977 C2.7604557 20.1116593 2.73339352 22.15075442 2.69824219 24.18969727 C2.37567126 43.41587351 4.3428959 61.3187358 11.6875 79.25 C12.12175293 80.34135254 12.55600586 81.43270508 13.00341797 82.55712891 C20.42013453 100.82008624 30.38119912 116.63598664 42.53710938 132.13085938 C44.14137626 134.18063696 45.73537735 136.2381349 47.328125 138.296875 C54.36714659 147.38812939 61.48386668 156.41207015 68.69091797 165.37060547 C71.19781309 168.49089977 73.6893253 171.62351564 76.18359375 174.75390625 C78.42606675 177.52685674 80.71696029 180.26035235 83 183 C83.33 176.73 83.66 170.46 84 164 C91.14586074 168.42842074 98.04529892 173.09283945 104.89428711 177.96191406 C111.06746967 182.34976472 117.27807691 186.68158529 123.5 191 C130.55295725 195.90064361 137.60166572 200.80696367 144.625 205.75 C145.30498047 206.22695313 145.98496094 206.70390625 146.68554688 207.1953125 C150.22025612 209.68870577 153.65269694 212.25546799 157 215 C156.67 215.99 156.34 216.98 156 218 C155.67 217.34 155.34 216.68 155 216 C153.73929688 215.97421875 152.47859375 215.9484375 151.1796875 215.921875 C118.31132059 214.97271123 83.85295901 206.12520134 56.80078125 186.703125 C55.87652344 186.14109375 54.95226562 185.5790625 54 185 C53.01 185.33 52.02 185.66 51 186 C50.62230469 185.48953125 50.24460937 184.9790625 49.85546875 184.453125 C43.71166406 176.33812303 36.93886428 168.64355338 29.5 161.6875 C23.88639919 156.14104752 19.45242352 149.48284468 15 143 C14.39986084 142.12625732 14.39986084 142.12625732 13.78759766 141.23486328 C-6.92688506 110.43302034 -15.19212685 71.17252202 -8.3125 34.6875 C-6.4871329 25.95157336 -3.90956981 17.43059776 -1 9 C-1.33 8.67 -1.66 8.34 -2 8 C-2.99 9.32 -3.98 10.64 -5 12 C-5.66 11.67 -6.32 11.34 -7 11 C-6.1875 8.0625 -6.1875 8.0625 -5 5 C-4.01 4.67 -3.02 4.34 -2 4 C-2 3.34 -2 2.68 -2 2 C-1.34 2 -0.68 2 0 2 C0 1.34 0 0.68 0 0 Z " fill="#7CBA86" transform="translate(451,271)"/>
<path d="M0 0 C19.35117604 6.68152908 35.77192107 17.25264951 50.53173828 31.36523438 C51.84166392 32.60901124 53.17568483 33.82727987 54.51171875 35.04296875 C73.9797838 53.35852435 90.21774539 82.60502912 91.390625 109.65234375 C91.36389252 115.02557303 90.30256491 117.7083751 86.55859375 121.5078125 C82.37252929 124.65499965 76.92809324 124.27278411 71.953125 123.71484375 C67.37949924 121.46960929 65.239968 119.19454991 62.953125 114.71484375 C62.41244537 112.39920573 61.96098759 110.06174173 61.578125 107.71484375 C56.91166234 82.13525202 40.79797018 58.24907912 19.828125 43.08984375 C12.56842103 38.23857237 4.86776186 34.37647609 -3.046875 30.71484375 C-4.65949219 29.93173828 -4.65949219 29.93173828 -6.3046875 29.1328125 C-12.0695969 26.68975143 -18.4629644 25.93738842 -24.59765625 24.87304688 C-31.16008209 23.58722425 -35.58639413 21.81806006 -40.046875 16.71484375 C-42.46665159 12.71695199 -42.77418977 8.29423301 -42.046875 3.71484375 C-33.95413257 -12.17090992 -13.39541573 -4.37020528 0 0 Z " fill="#99C666" transform="translate(572.046875,353.28515625)"/>
<path d="M0 0 C5.62007466 2.56728542 7.18476179 5.7601536 9.37231445 11.41333008 C9.74445068 12.43193115 10.11658691 13.45053223 10.5 14.5 C10.91016357 15.57209717 11.32032715 16.64419434 11.74291992 17.7487793 C12.66076638 20.14918429 13.57069852 22.55262538 14.47412109 24.95849609 C17.05031976 31.80892446 19.73000927 38.6197563 22.38867188 45.43847656 C23.29248318 47.76106142 24.19190763 50.08529443 25.08984375 52.41015625 C25.65994928 53.88419465 26.23025736 55.35815473 26.80078125 56.83203125 C27.07403732 57.53832672 27.3472934 58.24462219 27.62882996 58.97232056 C29.67216717 64.22555967 31.83611361 69.42020829 34.08642578 74.58862305 C35.41499003 78.09536517 35.69275839 80.30528857 35 84 C32.38882396 87.30748965 30.37396185 88.81680509 26.1875 89.375 C23 89 23 89 20.4375 87.3125 C18 84 18 84 13 71 C2.11 71 -8.78 71 -20 71 C-21.65 75.62 -23.3 80.24 -25 85 C-30 89 -30 89 -33.5 89.5625 C-37 89 -37 89 -39.9375 86.9375 C-42.5668663 83.19264496 -42.37785463 81.52966159 -42 77 C-41.19143971 74.05278964 -40.07820845 71.26383776 -38.921875 68.4375 C-38.43757019 67.21192635 -38.43757019 67.21192635 -37.94348145 65.96159363 C-36.89017571 63.30311986 -35.82045344 60.65161007 -34.75 58 C-34.01806905 56.16492236 -33.28728381 54.32938736 -32.55761719 52.4934082 C-31.44935601 49.70508001 -30.34028483 46.91711202 -29.22662354 44.13093567 C-26.8945433 38.28956587 -24.62249054 32.42920324 -22.40625 26.54296875 C-21.86362706 25.10871628 -21.32098444 23.67447126 -20.77832031 22.24023438 C-20.01925481 20.2323837 -19.26338517 18.22364466 -18.51794434 16.21069336 C-17.83929399 14.38035508 -17.14654651 12.5552622 -16.453125 10.73046875 C-16.07317383 9.71364014 -15.69322266 8.69681152 -15.30175781 7.64916992 C-12.08237938 1.09750538 -7.18773451 -1.35079838 0 0 Z " fill="#5FBEDA" transform="translate(418,643)"/>
<path d="M0 0 C1.301437 -0.01879967 1.301437 -0.01879967 2.62916565 -0.03797913 C3.55325729 -0.02472092 4.47734894 -0.01146271 5.42944336 0.00219727 C6.3895079 -0.00021469 7.34957245 -0.00262665 8.33872986 -0.00511169 C10.36355734 -0.00413423 12.38841187 0.00923537 14.41308594 0.03417969 C17.5125595 0.06852896 20.60918772 0.0548233 23.70874023 0.03540039 C25.67815341 0.0422979 27.64755923 0.05196942 29.61694336 0.06469727 C30.54305923 0.0597374 31.46917511 0.05477753 32.4233551 0.04966736 C38.83015993 0.16703408 38.83015993 0.16703408 42.03637695 2.54150391 C43.56279342 4.78705196 44.02454651 5.93829173 44.01928711 8.63110352 C44.04120117 9.29110352 44.06311523 9.95110352 44.08569336 10.63110352 C43.08898232 13.80076842 41.1940126 14.83914674 38.45678711 16.63110352 C35.13525391 17.08520508 35.13525391 17.08520508 31.40600586 17.02172852 C30.74719925 17.01606873 30.08839264 17.01040894 29.40962219 17.00457764 C27.32041495 16.98231591 25.23296938 16.93214682 23.14428711 16.88110352 C21.72178597 16.86102496 20.29925774 16.84277655 18.87670898 16.82641602 C15.40218918 16.78589683 11.93144233 16.70760969 8.45678711 16.63110352 C8.45678711 22.90110352 8.45678711 29.17110352 8.45678711 35.63110352 C10.35944336 35.58469727 12.26209961 35.53829102 14.22241211 35.49047852 C16.7171881 35.45296309 19.21198104 35.41656269 21.70678711 35.38110352 C23.58817383 35.33083008 23.58817383 35.33083008 25.50756836 35.27954102 C26.7128418 35.26665039 27.91811523 35.25375977 29.15991211 35.24047852 C30.82521973 35.20905762 30.82521973 35.20905762 32.52416992 35.17700195 C36.11419843 35.73290047 37.25195225 36.80644611 39.45678711 39.63110352 C39.98803711 41.63110352 39.98803711 41.63110352 39.95678711 43.63110352 C39.96709961 44.29110352 39.97741211 44.95110352 39.98803711 45.63110352 C39.20493975 48.57923474 37.81850535 49.73058966 35.45678711 51.63110352 C32.52416992 52.08520508 32.52416992 52.08520508 29.15991211 52.02172852 C27.95463867 52.00883789 26.74936523 51.99594727 25.50756836 51.98266602 C24.25331055 51.94915039 22.99905273 51.91563477 21.70678711 51.88110352 C20.43706055 51.86305664 19.16733398 51.84500977 17.85913086 51.82641602 C14.72469453 51.77928163 11.59064581 51.70753909 8.45678711 51.63110352 C8.45678711 58.23110352 8.45678711 64.83110352 8.45678711 71.63110352 C10.72038086 71.58469727 12.98397461 71.53829102 15.31616211 71.49047852 C17.51373046 71.45926438 19.71127391 71.43498741 21.90893555 71.41137695 C23.43378796 71.39128752 24.95856358 71.36401036 26.4831543 71.3293457 C28.67768309 71.28070556 30.8711918 71.25810956 33.06616211 71.24047852 C34.38583984 71.21953125 35.70551758 71.19858398 37.06518555 71.17700195 C40.45678711 71.63110352 40.45678711 71.63110352 42.88549805 73.53051758 C44.58828381 75.80689556 45.00061525 76.82610283 44.95678711 79.63110352 C44.96709961 80.29110352 44.97741211 80.95110352 44.98803711 81.63110352 C44.16466789 84.73084644 43.05911587 85.71344351 40.45678711 87.63110352 C37.1111769 88.26356174 33.79550858 88.23919845 30.39819336 88.23266602 C28.92623756 88.24552139 28.92623756 88.24552139 27.42454529 88.25863647 C25.35093266 88.2701131 23.27723951 88.27113079 21.20361328 88.26245117 C18.03334999 88.25613155 14.8668229 88.30304294 11.69702148 88.35375977 C9.68075015 88.35830613 7.66446878 88.35971257 5.64819336 88.35766602 C4.70222794 88.37608551 3.75626251 88.394505 2.78163147 88.41348267 C1.89398605 88.40102509 1.00634064 88.3885675 0.09179688 88.37573242 C-0.68445541 88.37699127 -1.4607077 88.37825012 -2.26048279 88.37954712 C-5.82210419 87.21179069 -7.76767873 84.80607689 -9.54321289 81.63110352 C-10.02992988 78.8920016 -10.23067506 76.77798054 -10.19018555 74.05273438 C-10.19894714 73.31861832 -10.20770874 72.58450226 -10.21673584 71.82814026 C-10.23862994 69.4167968 -10.2242163 67.00730726 -10.20727539 64.59594727 C-10.21064609 62.91255849 -10.21550082 61.2291721 -10.22177124 59.54579163 C-10.22912865 56.02443176 -10.21847286 52.50370763 -10.19506836 48.98242188 C-10.16655854 44.47389953 -10.18300457 39.96686399 -10.21293068 35.45839596 C-10.23101599 31.9847141 -10.22524051 28.51138367 -10.21229172 25.03769112 C-10.20896222 23.37554306 -10.21302878 21.71336285 -10.22468948 20.05125237 C-10.23742202 17.7266702 -10.21799344 15.40448233 -10.19018555 13.08007812 C-10.2003067 12.39682465 -10.21042786 11.71357117 -10.22085571 11.00961304 C-10.13876268 7.29669161 -9.57930957 5.6779122 -7.28672791 2.70498657 C-4.48034247 0.58357839 -3.42935732 0.00434842 0 0 Z " fill="#4DB3D8" transform="translate(325.543212890625,643.368896484375)"/>
<path d="M0 0 C4.24222073 3.55429305 4.24222073 3.55429305 4.68359375 5.9609375 C4.8608965 12.23954082 4.8608965 12.23954082 2.25 15.5625 C-1.64463981 17.38552289 -3.53849835 16.99233093 -7.6875 15.9375 C-8.92024385 15.42519087 -10.14929736 14.90393392 -11.375 14.375 C-17.30730396 12.04815456 -23.89271995 11.87140795 -30.0234375 13.59375 C-36.49755417 16.47113519 -40.94719726 21.45566104 -43.5625 28 C-46.47932196 38.15679074 -45.38685726 48.52374743 -40.7265625 57.86328125 C-37.44217085 63.302327 -32.62841758 65.97456524 -26.6875 67.9375 C-19.84724214 69.16358396 -14.4989979 67.34203438 -8.1640625 64.84375 C-5.11010243 63.72621256 -2.8984707 63.32588653 0.3125 63.9375 C3.1875 65.4375 3.1875 65.4375 5.3125 67.9375 C6.08588447 72.80982215 6.17425506 74.72565694 3.3125 78.75 C-6.79558733 86.12048034 -19.69253225 85.99388874 -31.6875 84.9375 C-42.49437403 82.5553396 -51.04888158 75.3907 -57.0625 66.25 C-63.59912021 54.21667643 -66.09670038 40.06243797 -62.5625 26.6875 C-58.39127462 15.00806894 -51.75475957 5.258611 -40.875 -1.03125 C-28.72435779 -6.7594099 -11.64226882 -7.58167262 0 0 Z " fill="#A2C965" transform="translate(749.6875,647.0625)"/>
<path d="M0 0 C6.73083949 1.30274313 12.71988126 3.26851604 19 6 C19.91354248 6.39662842 20.82708496 6.79325684 21.76831055 7.2019043 C41.83620955 16.12271662 59.24557602 28.78650045 75 44 C75.84949219 44.79792969 76.69898438 45.59585938 77.57421875 46.41796875 C105.38777535 73.18360485 129.50010325 116.31021804 131.1015625 155.484375 C130.86757053 160.8481909 129.12611404 163.80962834 125.47265625 167.6875 C121.9544938 170.82305062 118.5036278 170.07263916 114 170 C114.99 169.67 115.98 169.34 117 169 C112.70900743 146.18303107 112.70900743 146.18303107 106 124 C105.72462402 123.24525391 105.44924805 122.49050781 105.16552734 121.71289062 C95.20348116 94.7384036 80.55747705 69.19535911 61 48 C59.81625715 46.68503003 58.63267349 45.36991676 57.44921875 44.0546875 C40.97515823 25.93300833 22.34809839 11.22658607 0 1 C0 0.67 0 0.34 0 0 Z " fill="#B6D260" transform="translate(582,307)"/>
<path d="M0 0 C3.86111708 0.61426863 5.06876087 2.63155207 7.75 5.4375 C14.36737975 10.37319027 20.62100366 11.28619888 28.75 11.4375 C28.15298507 17.76585821 28.15298507 17.76585821 26.625 20.3125 C23.56186337 22.15038198 21.33101944 22.37974162 17.75 22.4375 C15.78515625 21.6015625 15.78515625 21.6015625 13.6875 20.5 C7.54349072 17.51187262 1.43625344 17.45957858 -5.25 18.4375 C-12.1985451 20.87962792 -16.18406255 24.74502901 -19.41015625 31.2890625 C-22.65912775 39.60038494 -22.70983521 50.77942845 -19.5 59.125 C-15.78371394 66.78823816 -11.31044168 70.59948013 -3.25 73.4375 C3.58056385 74.68137034 8.94866041 72.83802829 15.2734375 70.34375 C18.32739757 69.22621256 20.5390293 68.82588653 23.75 69.4375 C26.625 70.9375 26.625 70.9375 28.75 73.4375 C29.68951256 78.29164825 29.68951256 78.29164825 28.75 81.4375 C24.84984149 86.83493298 19.01120249 88.90479356 12.75 90.4375 C9.5890106 90.82189578 6.49378545 90.86885753 3.3125 90.8125 C2.06364014 90.79727295 2.06364014 90.79727295 0.78955078 90.78173828 C-10.5614619 90.49535443 -19.17057419 87.26856561 -27.44921875 79.328125 C-31.72191277 74.74741791 -34.84161202 70.20998547 -37.25 64.4375 C-37.641875 63.591875 -38.03375 62.74625 -38.4375 61.875 C-42.37938143 50.04935571 -41.5255833 35.64198961 -36.25 24.4375 C-30.30331353 13.50382285 -21.72181311 5.53547956 -9.75390625 1.62109375 C-6.52100076 0.84148922 -3.29388934 0.44340818 0 0 Z " fill="#379ECD" transform="translate(219.25,641.5625)"/>
<path d="M0 0 C22.30517737 6.7819796 40.51978468 22.06268524 52.34765625 41.98828125 C56.445288 49.73717964 60.33393132 58.23407648 60.203125 67.12890625 C60.19410156 67.928125 60.18507813 68.72734375 60.17578125 69.55078125 C60.16417969 70.1540625 60.15257812 70.75734375 60.140625 71.37890625 C54.03522763 68.31005572 48.50374619 64.59222418 42.98632812 60.58740234 C38.05451205 57.01274133 33.05194914 53.55451644 28.015625 50.12890625 C21.20733644 45.4936373 14.44146087 40.80277738 7.703125 36.06640625 C2.28226864 32.25708554 -3.15058686 28.47890661 -8.671875 24.81640625 C-9.58066406 24.20539063 -10.48945312 23.594375 -11.42578125 22.96484375 C-12.96476102 21.96191311 -14.53341986 21.00199609 -16.13671875 20.10546875 C-18.109375 18.94140625 -18.109375 18.94140625 -20.859375 16.37890625 C-21.92202954 12.05691578 -21.36619465 8.54459144 -19.609375 4.50390625 C-14.16754361 -2.10403186 -7.96363638 -1.72980626 0 0 Z " fill="#8DC16B" transform="translate(553.859375,398.62109375)"/>
<path d="M0 0 C0.66 0 1.32 0 2 0 C3.4453125 2.0546875 3.4453125 2.0546875 5.125 4.875 C10.68574124 13.83205317 16.79164257 21.38430894 25 28 C25.97324219 28.83273437 26.94648438 29.66546875 27.94921875 30.5234375 C50.65935917 49.58736128 80.9219457 59.91207194 110.63110352 57.81420898 C133.80126684 55.4584095 154.48687981 48.8477853 173.984375 36.03125 C176 35 176 35 180 35 C179.04058726 42.32183405 173.70733501 45.8844322 168.140625 50.234375 C155.57333658 59.30032934 141.92045354 65.82032898 127 70 C126.35659668 70.18618896 125.71319336 70.37237793 125.05029297 70.56420898 C118.08309358 72.37150211 111.1629565 72.34505255 104 72.3125 C102.0660437 72.30404053 102.0660437 72.30404053 100.09301758 72.29541016 C69.46068936 71.90666037 42.56314068 59.99013356 21 38 C12.33142762 28.43334568 0 13.41703098 0 0 Z M181 33 C181.66 33.33 182.32 33.66 183 34 C182.01 34 181.02 34 180 34 C180.33 33.67 180.66 33.34 181 33 Z " fill="#53AFDA" transform="translate(333,514)"/>
<path d="M0 0 C1.16801147 -0.01253311 2.33602295 -0.02506622 3.53942871 -0.03797913 C4.79678833 -0.02472092 6.05414795 -0.01146271 7.34960938 0.00219727 C8.64402954 -0.00021469 9.93844971 -0.00262665 11.27209473 -0.00511169 C14.0093532 -0.00796732 16.74579233 0.00670586 19.48291016 0.03417969 C22.98712102 0.06826437 26.48986726 0.06224334 29.99414825 0.04351711 C33.34194706 0.03039192 36.68932078 0.04866574 40.03710938 0.06469727 C41.9231488 0.05725746 41.9231488 0.05725746 43.84729004 0.04966736 C45.01530151 0.06550369 46.18331299 0.08134003 47.38671875 0.09765625 C48.92749084 0.10695412 48.92749084 0.10695412 50.49938965 0.11643982 C53.9125053 0.76849121 55.10318383 1.89800438 57.19335938 4.63110352 C57.76214447 8.54150107 57.61326146 10.79612581 55.83398438 14.33422852 C51.72826658 17.90547418 47.68938107 17.17062842 42.44335938 16.94360352 C41.45980469 16.92104492 40.47625 16.89848633 39.46289062 16.87524414 C37.03816467 16.81639157 34.61653954 16.73423782 32.19335938 16.63110352 C32.21001396 17.87352058 32.21001396 17.87352058 32.227005 19.14103699 C32.32726513 26.95366102 32.40335355 34.76606844 32.45242023 42.57918835 C32.47849444 46.5958778 32.51385116 50.6120349 32.57055664 54.62841797 C32.62495647 58.50583933 32.65479629 62.38274927 32.66774559 66.26052284 C32.67697139 67.73853925 32.69498795 69.21652823 32.72200966 70.6943264 C32.75841025 72.76785726 32.76330077 74.83928605 32.76098633 76.91308594 C32.77764091 78.68180305 32.77764091 78.68180305 32.79463196 80.48625183 C32.00936775 84.59343972 30.43405246 86.07168004 27.19335938 88.63110352 C23.69335938 89.25610352 23.69335938 89.25610352 20.19335938 88.63110352 C16.95266629 86.07168004 15.377351 84.59343972 14.59208679 80.48625183 C14.60318985 79.30710709 14.61429291 78.12796234 14.62573242 76.91308594 C14.62500229 76.25886658 14.62427216 75.60464722 14.6235199 74.93060303 C14.626986 72.78173052 14.66579273 70.63506295 14.70507812 68.48657227 C14.71440993 66.99157393 14.72152431 65.49656026 14.72651672 64.00154114 C14.7455582 60.07696922 14.79463256 56.15333053 14.85003662 52.22912598 C14.90129177 48.22066877 14.92404402 44.21205997 14.94921875 40.20336914 C15.00275569 32.3455202 15.08803203 24.48842812 15.19335938 16.63110352 C14.60844727 16.65205078 14.02353516 16.67299805 13.42089844 16.69458008 C10.76189472 16.77790467 8.10316582 16.82981248 5.44335938 16.88110352 C4.06277344 16.93137695 4.06277344 16.93137695 2.65429688 16.98266602 C-4.16189102 17.08145135 -4.16189102 17.08145135 -7.38476562 14.83032227 C-9.42092037 11.680995 -9.80664062 9.37043418 -9.80664062 5.63110352 C-7.04360739 1.10244135 -5.2639223 0.00492867 0 0 Z " fill="#B2D064" transform="translate(766.806640625,643.368896484375)"/>
<path d="M0 0 C0.7528125 -0.0103125 1.505625 -0.020625 2.28125 -0.03125 C5.40829362 0.71747875 6.50868136 1.99247312 8.5 4.5 C8.98101807 7.52459717 8.98101807 7.52459717 8.95410156 11.10449219 C8.95468567 11.75856552 8.95526978 12.41263885 8.95587158 13.08653259 C8.95309299 15.24052694 8.92201548 17.39312356 8.890625 19.546875 C8.88316172 21.04330693 8.87746919 22.53974864 8.87347412 24.03619385 C8.85822439 27.9688429 8.81894912 31.90089807 8.7746582 35.83331299 C8.73369074 39.84842902 8.71546001 43.86364131 8.6953125 47.87890625 C8.65245348 55.75287626 8.58421103 63.62636419 8.5 71.5 C9.3878418 71.48428955 10.27568359 71.4685791 11.19042969 71.45239258 C14.49289821 71.40118314 17.7949432 71.36361144 21.09765625 71.33520508 C22.52545846 71.32014319 23.9532146 71.29968938 25.38085938 71.27368164 C27.43631373 71.23718158 29.49115505 71.22024834 31.546875 71.20703125 C32.78276367 71.1913208 34.01865234 71.17561035 35.29199219 71.15942383 C38.72358497 71.52373676 40.09663335 72.0731429 42.5 74.5 C43.03125 76.62109375 43.03125 76.62109375 43 78.9375 C43.0103125 79.69933594 43.020625 80.46117187 43.03125 81.24609375 C42.26276579 84.50650101 41.20431803 85.49431254 38.5 87.5 C35.37035515 88.11433479 32.27921044 88.08429004 29.09765625 88.06640625 C28.18294052 88.07260483 27.26822479 88.07880341 26.32579041 88.08518982 C24.39339257 88.09228608 22.46093357 88.08911734 20.52856445 88.07641602 C17.57583718 88.06256257 14.62628712 88.09660744 11.67382812 88.13476562 C9.79427006 88.13571698 7.91470804 88.13385714 6.03515625 88.12890625 C5.15481216 88.14216446 4.27446808 88.15542267 3.3674469 88.16908264 C2.12607216 88.15028297 2.12607216 88.15028297 0.85961914 88.13110352 C0.13666153 88.13014175 -0.58629608 88.12917999 -1.3311615 88.12818909 C-4.81822182 87.11818616 -6.30725402 85.34333186 -8.5 82.5 C-8.99097404 79.73672812 -9.17678688 77.59062456 -9.13110352 74.83569336 C-9.13825882 74.08060989 -9.14541412 73.32552643 -9.15278625 72.54756165 C-9.16964365 70.06103319 -9.15029195 67.57631516 -9.12890625 65.08984375 C-9.12973514 63.35779166 -9.1321953 61.62573964 -9.13621521 59.89369202 C-9.13907105 56.26799779 -9.12439189 52.64292207 -9.09692383 49.01733398 C-9.06281549 44.37096441 -9.06886949 39.72569876 -9.0875864 35.07927608 C-9.09815579 31.50442813 -9.08921965 27.92983697 -9.07420158 24.35501289 C-9.06902055 22.64180832 -9.06950064 20.92857692 -9.07574654 19.2153759 C-9.08119922 16.82130133 -9.06082535 14.42880661 -9.03344727 12.03491211 C-9.04323608 10.97423019 -9.04323608 10.97423019 -9.05322266 9.89212036 C-8.98734267 6.50309421 -8.71172365 4.77240904 -6.60533142 2.06227112 C-4.18516696 0.26637666 -2.98517833 -0.04089285 0 0 Z " fill="#39A3D1" transform="translate(266.5,643.5)"/>
<path d="M0 0 C1.44365433 -0.00006042 1.44365433 -0.00006042 2.91647339 -0.00012207 C4.94552156 0.00522787 6.97456956 0.02278806 9.00341797 0.05175781 C12.11359698 0.09370158 15.22161643 0.09281786 18.33203125 0.0859375 C20.30470258 0.09642713 22.27736275 0.10936401 24.25 0.125 C25.64691574 0.12530212 25.64691574 0.12530212 27.072052 0.12561035 C28.36887405 0.14947815 28.36887405 0.14947815 29.69189453 0.17382812 C30.45180695 0.18224731 31.21171936 0.1906665 31.99465942 0.19934082 C34.52360613 0.69867788 35.42292377 1.58425672 36.9921875 3.59375 C37.390625 5.75 37.390625 5.75 37.3671875 8.09375 C37.37878906 9.25390625 37.37878906 9.25390625 37.390625 10.4375 C36.90163304 13.08380943 36.06681825 13.9340454 33.9921875 15.59375 C31.12200309 17.02884221 28.65675027 16.70533506 25.453125 16.69140625 C24.15117188 16.68818359 22.84921875 16.68496094 21.5078125 16.68164062 C20.12760351 16.67328466 18.74739518 16.66481971 17.3671875 16.65625 C15.97916824 16.65123501 14.59114728 16.6466721 13.203125 16.64257812 C9.79946077 16.63075985 6.3958188 16.6128239 2.9921875 16.59375 C2.9921875 22.86375 2.9921875 29.13375 2.9921875 35.59375 C5.61220703 35.52414062 5.61220703 35.52414062 8.28515625 35.453125 C10.58331623 35.41560402 12.88149471 35.37920421 15.1796875 35.34375 C16.33017578 35.31023438 17.48066406 35.27671875 18.66601562 35.2421875 C20.33374023 35.22285156 20.33374023 35.22285156 22.03515625 35.203125 C23.56692505 35.1717041 23.56692505 35.1717041 25.12963867 35.13964844 C28.74018829 35.7124094 30.41658967 37.05095668 32.9921875 39.59375 C32.9921875 40.25375 32.9921875 40.91375 32.9921875 41.59375 C17.1521875 41.59375 1.3121875 41.59375 -15.0078125 41.59375 C-15.1625 32.8384375 -15.1625 32.8384375 -15.3203125 23.90625 C-15.36583252 22.07231689 -15.41135254 20.23838379 -15.45825195 18.34887695 C-15.47286361 16.88494696 -15.48560268 15.42099657 -15.49609375 13.95703125 C-15.52167358 13.2053064 -15.54725342 12.45358154 -15.5736084 11.67907715 C-15.57669993 7.94265412 -15.12377829 5.77549364 -13.1027832 2.6081543 C-8.7123483 -0.24942071 -5.1359206 -0.09081338 0 0 Z " fill="#A4CB6A" transform="translate(642.0078125,643.40625)"/>
<path d="M0 0 C15.84 0 31.68 0 48 0 C45 3 45 3 42.08911133 3.34057617 C40.9317749 3.32486572 39.77443848 3.30915527 38.58203125 3.29296875 C37.32841797 3.28330078 36.07480469 3.27363281 34.78320312 3.26367188 C33.47287109 3.23853516 32.16253906 3.21339844 30.8125 3.1875 C29.47722837 3.17244967 28.14194063 3.15876187 26.80664062 3.14648438 C23.53758748 3.11107947 20.26874317 3.05727194 17 3 C17 9.6 17 16.2 17 23 C19.26359375 22.95359375 21.5271875 22.9071875 23.859375 22.859375 C26.05694335 22.82816086 28.2544868 22.8038839 30.45214844 22.78027344 C31.97700085 22.76018401 33.50177648 22.73290684 35.02636719 22.69824219 C37.22089598 22.64960204 39.41440469 22.62700604 41.609375 22.609375 C42.92905273 22.58842773 44.24873047 22.56748047 45.60839844 22.54589844 C49 23 49 23 51.42871094 24.89941406 C53.1314967 27.17579204 53.54382814 28.19499932 53.5 31 C53.5103125 31.66 53.520625 32.32 53.53125 33 C52.71053764 36.08974066 51.58644924 37.08394862 49 39 C45.72699166 39.63057011 42.48573227 39.60810802 39.16015625 39.6015625 C38.20104843 39.61013275 37.24194061 39.618703 36.25376892 39.62753296 C34.22723546 39.63900855 32.20061963 39.64002804 30.17407227 39.63134766 C27.07620461 39.62502796 23.98216062 39.67193982 20.88476562 39.72265625 C18.91406731 39.72720264 16.94335874 39.72860904 14.97265625 39.7265625 C14.04856461 39.74498199 13.12447296 39.76340149 12.17237854 39.78237915 C6.070843 39.69477172 6.070843 39.69477172 3.28886414 37.88980103 C0.25704403 34.71363405 -0.56968569 31.56980455 -0.5657959 27.26147461 C-0.54021606 26.57964111 -0.51463623 25.89780762 -0.48828125 25.1953125 C-0.48324585 24.55263428 -0.47821045 23.90995605 -0.47302246 23.24780273 C-0.44708523 20.87307394 -0.37727845 18.4989868 -0.3125 16.125 C-0.209375 10.80375 -0.10625 5.4825 0 0 Z " fill="#8CC066" transform="translate(627,692)"/>
<path d="M0 0 C7.96936551 5.64496723 12.7854537 16.4853304 17.79125977 24.78735352 C18.95609672 26.71832817 20.1271021 28.64546506 21.29882812 30.57226562 C27 39.98472731 27 39.98472731 27 41.125 C10.74349776 42.50526906 10.74349776 42.50526906 6.46875 39.12109375 C5.00316071 36.82572229 3.88762193 34.69604283 3 32.125 C2.67 35.095 2.34 38.065 2 41.125 C-3.94 41.125 -9.88 41.125 -16 41.125 C-16.09198758 36.08868026 -16.17157194 31.05529031 -16.21972656 26.01879883 C-16.23980505 24.30678414 -16.26707392 22.59483772 -16.30175781 20.88305664 C-16.35044401 18.41795992 -16.37300573 15.9537721 -16.390625 13.48828125 C-16.41127014 12.72663162 -16.43191528 11.96498199 -16.45318604 11.18025208 C-16.45475467 7.44008391 -16.14053729 5.34402502 -14.10058594 2.16479492 C-9.88633762 -1.92749293 -5.49771552 -1.60350036 0 0 Z " fill="#7FCBD3" transform="translate(477,643.875)"/>
<path d="M0 0 C0.74765625 0.020625 1.4953125 0.04125 2.265625 0.0625 C9.79202321 2.90265027 14.33962924 13.44621969 18.3125 19.9375 C18.95896484 20.98357422 19.60542969 22.02964844 20.27148438 23.10742188 C21.52707846 25.13961942 22.77933582 27.17388334 24.02783203 29.21044922 C25.56506684 31.70044708 27.13544792 34.16558245 28.71484375 36.62890625 C30.75 40 30.75 40 30.75 42 C17.97027344 43.20563458 17.97027344 43.20563458 12.75 42 C9.46914505 39.11406277 8.0359342 36.13863879 6.75 32 C6.42 34.97 6.09 37.94 5.75 41 C0.14 41 -5.47 41 -11.25 41 C-11.36501351 36.10553633 -11.4644671 31.21578515 -11.5246582 26.32104492 C-11.54975347 24.65747161 -11.58383796 22.99400804 -11.62719727 21.33081055 C-11.6880746 18.93510847 -11.71625769 16.54086749 -11.73828125 14.14453125 C-11.76408768 13.4047554 -11.7898941 12.66497955 -11.81648254 11.90278625 C-11.81864778 7.88741955 -11.41802009 6.20580884 -8.84448242 3.0534668 C-5.57465064 0.46547818 -4.09378158 -0.22279083 0 0 Z " fill="#99C76D" transform="translate(555.25,643)"/>
<path d="M0 0 C0.99 0 1.98 0 3 0 C2.97905273 1.25321045 2.95810547 2.5064209 2.93652344 3.79760742 C2.86278933 8.55578666 2.81772791 13.31391846 2.78027344 18.07250977 C2.7604557 20.1116593 2.73339352 22.15075442 2.69824219 24.18969727 C2.37567126 43.41587351 4.3428959 61.3187358 11.6875 79.25 C12.12175293 80.34135254 12.55600586 81.43270508 13.00341797 82.55712891 C20.04337339 99.89234788 29.22678993 115.43065254 41 130 C40.67 130.66 40.34 131.32 40 132 C39.360625 131.34 38.72125 130.68 38.0625 130 C35.68217742 127.60619118 33.17568706 125.39809545 30.625 123.1875 C17.17343089 111.2403827 7.3401021 96.30943247 0 80 C-0.5053125 78.89140625 -1.010625 77.7828125 -1.53125 76.640625 C-4.07967705 70.80294909 -5.77189447 65.24286976 -7 59 C-7.33 58.67 -7.66 58.34 -8 58 C-8.33 63.61 -8.66 69.22 -9 75 C-9.33 75 -9.66 75 -10 75 C-10.63623239 51.65761237 -8.64357488 31.14757149 -1 9 C-1.33 8.67 -1.66 8.34 -2 8 C-2.99 9.32 -3.98 10.64 -5 12 C-5.66 11.67 -6.32 11.34 -7 11 C-6.1875 8.0625 -6.1875 8.0625 -5 5 C-4.01 4.67 -3.02 4.34 -2 4 C-2 3.34 -2 2.68 -2 2 C-1.34 2 -0.68 2 0 2 C0 1.34 0 0.68 0 0 Z " fill="#A0CB9C" transform="translate(451,271)"/>
<path d="M0 0 C16.40986547 -1.22690583 16.40986547 -1.22690583 20.30859375 1.78125 C21.53327851 3.8454071 22.3896605 5.68277886 23 8 C23.33 5.36 23.66 2.72 24 0 C29.61 0 35.22 0 41 0 C41.13803452 4.89511312 41.25734914 9.78344339 41.32958984 14.67895508 C41.35970545 16.34259957 41.4006085 18.00608602 41.45263672 19.66918945 C41.52569321 22.06501254 41.55950481 24.45873253 41.5859375 26.85546875 C41.61690521 27.5952446 41.64787292 28.33502045 41.67977905 29.09721375 C41.68163738 31.96905733 41.55984155 34.28642911 39.74737549 36.59658813 C37.01402664 39.0017113 35.10899748 39.98248255 31.5 40.5625 C26.2502102 39.71878378 23.08990104 37.42325905 19.8671875 33.21484375 C19.20976562 32.13332031 18.55234375 31.05179688 17.875 29.9375 C17.11223588 28.70036252 16.34919905 27.46339315 15.5859375 26.2265625 C15.17827148 25.55657227 14.77060547 24.88658203 14.35058594 24.19628906 C12.85666535 21.76691278 11.32644227 19.36303649 9.7890625 16.9609375 C9.2439502 16.10765869 8.69883789 15.25437988 8.13720703 14.37524414 C7.05828852 12.68639719 5.97855528 10.99807041 4.89794922 9.31030273 C4.40568848 8.53372314 3.91342773 7.75714355 3.40625 6.95703125 C2.96603516 6.26585205 2.52582031 5.57467285 2.07226562 4.86254883 C1 3 1 3 0 0 Z " fill="#77C7D3" transform="translate(490,692)"/>
<path d="M0 0 C2.75236274 -0.16225719 5.49517476 -0.2809328 8.25 -0.375 C9.02730469 -0.42527344 9.80460938 -0.47554687 10.60546875 -0.52734375 C12.88182055 -0.58571174 14.7903908 -0.55969289 17 0 C21 4.55214724 21 4.55214724 21 8 C21.66 8 22.32 8 23 8 C23 5.36 23 2.72 23 0 C28.61 0 34.22 0 40 0 C40.11503185 4.7520937 40.21447713 9.49933019 40.2746582 14.25170898 C40.29974959 15.86678461 40.33383126 17.48174726 40.37719727 19.09643555 C40.43809286 21.42264706 40.46626124 23.74735359 40.48828125 26.07421875 C40.51408768 26.79212082 40.5398941 27.51002289 40.56648254 28.24967957 C40.56868419 32.21583789 40.13951169 33.82923066 37.59619141 36.94238281 C35.20389814 38.83840008 34.03134976 39.72858029 31.0625 40.0625 C30.43472656 40.15660156 29.80695312 40.25070312 29.16015625 40.34765625 C25.13250697 39.69944506 22.19699763 37.47767592 19.65063477 34.33422852 C18.28302507 32.34189865 17.00651791 30.31416301 15.75 28.25 C15.2861792 27.50862793 14.8223584 26.76725586 14.34448242 26.00341797 C13.37693089 24.45487688 12.41433671 22.90322813 11.45654297 21.34863281 C10.01647491 19.02656532 8.54693891 16.72612509 7.06640625 14.4296875 C6.14808817 12.99501521 5.23010601 11.56012783 4.3125 10.125 C3.8784082 9.4537207 3.44431641 8.78244141 2.99707031 8.09082031 C0 3.34199298 0 3.34199298 0 0 Z " fill="#8BC069" transform="translate(574,692)"/>
<path d="M0 0 C11.75683718 -0.60348784 21.53859724 1.70446052 31 9 C35.89998259 14.24785153 38.1478909 18.42927351 38.0625 25.6875 C38.05347656 26.68136719 38.04445312 27.67523437 38.03515625 28.69921875 C38.02355469 29.45847656 38.01195312 30.21773437 38 31 C35.76481939 28.84760386 33.83010162 26.76638972 32 24.25 C28.04560734 19.35408528 22.26452435 16.30817001 17 13 C17.74121094 13.57234375 18.48242188 14.1446875 19.24609375 14.734375 C25.83519296 20.15519421 30.59436175 26.19541235 34 34 C25.55068882 34.65329726 18.95210947 34.16889942 12 29 C3.6441597 20.70831203 0.43226854 11.56318352 0 0 Z " fill="#6EC0DE" transform="translate(216,615)"/>
<path d="M0 0 C4.2379154 0.74349393 6.94987961 2.23759682 9.5625 5.625 C10.36267099 8.50581189 10.26587881 11.23561326 10.1484375 14.20703125 C10.13994781 15.02121017 10.13145813 15.8353891 10.12271118 16.67424011 C10.08924176 19.26336525 10.0139836 21.84932381 9.9375 24.4375 C9.90739164 26.1972205 9.88001734 27.95699004 9.85546875 29.71679688 C9.79457876 34.02171884 9.6771911 38.31983583 9.5625 42.625 C3.6225 42.625 -2.3175 42.625 -8.4375 42.625 C-8.55248002 37.44578874 -8.65194858 32.27102493 -8.7121582 27.09155273 C-8.73726061 25.33098324 -8.77135028 23.57051753 -8.81469727 21.81030273 C-8.87554115 19.27561821 -8.90375113 16.74231425 -8.92578125 14.20703125 C-8.95158768 13.42350784 -8.9773941 12.63998444 -9.00398254 11.8327179 C-9.00612606 7.63037249 -8.78386437 6.07332002 -6.12182617 2.62768555 C-3.4375 0.625 -3.4375 0.625 0 0 Z " fill="#A3CC70" transform="translate(604.4375,642.375)"/>
<path d="M0 0 C2.68823242 1.48730469 2.68823242 1.48730469 5 4 C5.44541608 7.09358232 5.58638004 9.62192345 5.48828125 12.703125 C5.48120651 13.54091492 5.47413177 14.37870483 5.46684265 15.24188232 C5.43890066 17.91217147 5.37616613 20.58034708 5.3125 23.25 C5.28741671 25.06246967 5.26460359 26.87497228 5.24414062 28.6875 C5.1933283 33.12646489 5.0954879 37.5608735 5 42 C-0.61 42 -6.22 42 -12 42 C-12.11486374 36.66011218 -12.21436942 31.32451457 -12.2746582 25.984375 C-12.299789 24.16847201 -12.33389961 22.35267004 -12.37719727 20.53710938 C-12.43791511 17.92552777 -12.46622281 15.31528406 -12.48828125 12.703125 C-12.51408768 11.89256653 -12.5398941 11.08200806 -12.56648254 10.24688721 C-12.56844171 6.30170022 -12.40550479 4.44074932 -9.68823242 1.48730469 C-6.14461182 -0.47325627 -3.99595428 -0.57085061 0 0 Z " fill="#8ACECA" transform="translate(526,643)"/>
<path d="M0 0 C5.61 0 11.22 0 17 0 C17.0919129 4.91223385 17.17151843 9.82147752 17.21972656 14.73388672 C17.23982393 16.40423702 17.26710683 18.07451713 17.30175781 19.74462891 C17.35036119 22.1476372 17.37298656 24.54971434 17.390625 26.953125 C17.41127014 27.69806213 17.43191528 28.44299927 17.45318604 29.21051025 C17.45470647 32.73538772 17.29737018 34.61792901 15.10058594 37.44042969 C11.57801743 40.05574438 9.39823021 40.43119904 5 40 C2.33129883 38.49707031 2.33129883 38.49707031 0 36 C-0.44649301 33.04335206 -0.58732562 30.67737454 -0.48828125 27.734375 C-0.48120651 26.94097717 -0.47413177 26.14757935 -0.46684265 25.33013916 C-0.43891048 22.80245635 -0.37617989 20.27701012 -0.3125 17.75 C-0.28741535 16.03388622 -0.26460246 14.31773762 -0.24414062 12.6015625 C-0.19334191 8.39949247 -0.09550548 4.20224105 0 0 Z " fill="#85BF67" transform="translate(545,692)"/>
<path d="M0 0 C5.61 0 11.22 0 17 0 C17.09201487 4.75154551 17.1715883 9.49998115 17.21972656 14.25170898 C17.23979892 15.86672458 17.2670633 17.48166789 17.30175781 19.09643555 C17.35047215 21.42254501 17.37301154 23.74769093 17.390625 26.07421875 C17.41127014 26.79212082 17.43191528 27.51002289 17.45318604 28.24967957 C17.45480378 31.89253743 17.10047711 33.84485457 15.10058594 36.93286133 C12.60149251 39.39216213 11.66658325 39.92593519 8.1875 40.3125 C4.10691559 39.91244271 2.79100724 38.98946717 0 36 C-0.44649301 33.04335206 -0.58732562 30.67737454 -0.48828125 27.734375 C-0.48120651 26.94097717 -0.47413177 26.14757935 -0.46684265 25.33013916 C-0.43891048 22.80245635 -0.37617989 20.27701012 -0.3125 17.75 C-0.28741535 16.03388622 -0.26460246 14.31773762 -0.24414062 12.6015625 C-0.19334191 8.39949247 -0.09550548 4.20224105 0 0 Z " fill="#65C0D6" transform="translate(462,692)"/>
<path d="M0 0 C2.45662438 2.45662438 3.02892848 4.49593326 4.1640625 7.77734375 C4.56367188 8.93041016 4.96328125 10.08347656 5.375 11.27148438 C5.7875 12.48126953 6.2 13.69105469 6.625 14.9375 C7.25535156 16.74637695 7.25535156 16.74637695 7.8984375 18.59179688 C11 27.60948914 11 27.60948914 11 31 C4.07 31 -2.86 31 -10 31 C-8.88227147 22.05817175 -8.88227147 22.05817175 -7.1875 18.25 C-5.10919293 13.37280495 -3.44608974 8.41904559 -1.83203125 3.37109375 C-1 1 -1 1 0 0 Z " fill="#F4F9F9" transform="translate(414,666)"/>
<path d="M0 0 C0.33 0 0.66 0 1 0 C1.33 1.65 1.66 3.3 2 5 C4.64 4.67 7.28 4.34 10 4 C10.02684679 6.64590014 10.04676357 9.29153096 10.0625 11.9375 C10.07087891 12.69224609 10.07925781 13.44699219 10.08789062 14.22460938 C10.09652441 16.14994313 10.05224333 18.07535581 10 20 C9 21 9 21 5.4375 21.0625 C4.303125 21.041875 3.16875 21.02125 2 21 C1.67 21.99 1.34 22.98 1 24 C-0.32915021 16.02509872 -0.08801359 8.05813281 0 0 Z " fill="#E6EBEC" transform="translate(347,470)"/>
<path d="M0 0 C0.99 0 1.98 0 3 0 C2.67 12.21 2.34 24.42 2 37 C1.67 37 1.34 37 1 37 C0.67 29.74 0.34 22.48 0 15 C-0.33 15.66 -0.66 16.32 -1 17 C-1.66 17 -2.32 17 -3 17 C-2.34 13.7 -1.68 10.4 -1 7 C-2.32 8.65 -3.64 10.3 -5 12 C-5.66 11.67 -6.32 11.34 -7 11 C-6.1875 8.0625 -6.1875 8.0625 -5 5 C-4.01 4.67 -3.02 4.34 -2 4 C-2 3.34 -2 2.68 -2 2 C-1.34 2 -0.68 2 0 2 C0 1.34 0 0.68 0 0 Z " fill="#C7DEB5" transform="translate(451,271)"/>
<path d="M0 0 C3.96 0 7.92 0 12 0 C12 4.62 12 9.24 12 14 C7.76014063 9.88862122 3.72154258 5.59026002 0 1 C0 0.67 0 0.34 0 0 Z " fill="#EEF2EF" transform="translate(523,441)"/>
<path d="M0 0 C8.20055348 4.36199653 15.36805009 9.55129205 21 17 C20.01 19.475 20.01 19.475 19 22 C16.29593634 19.51226144 14.37778097 16.71629947 12.3125 13.6875 C9.13598618 9.23212997 6.04935419 6.08967762 1.46875 3.12109375 C0.9840625 2.75113281 0.499375 2.38117187 0 2 C0 1.34 0 0.68 0 0 Z " fill="#EBF3F4" transform="translate(232,627)"/>
<path d="M0 0 C-1.596762 3.6204657 -3.8150509 6.44429757 -6.3125 9.5 C-7.45138672 10.90765625 -7.45138672 10.90765625 -8.61328125 12.34375 C-10.90630189 14.8957206 -13.26106609 16.94458765 -16 19 C-16 18.01 -16 17.02 -16 16 C-16.99 15.67 -17.98 15.34 -19 15 C-17.35 14.34 -15.7 13.68 -14 13 C-14 12.34 -14 11.68 -14 11 C-12.390625 9.4140625 -12.390625 9.4140625 -10.25 7.625 C-7.93096298 5.66242273 -5.74780716 3.7411705 -3.625 1.5625 C-2 0 -2 0 0 0 Z M-15 14 C-15.33 14.66 -15.66 15.32 -16 16 C-15.01 15.67 -14.02 15.34 -13 15 C-13.66 14.67 -14.32 14.34 -15 14 Z " fill="#88C8D5" transform="translate(529,533)"/>
<path d="M0 0 C3.3 0 6.6 0 10 0 C8.77946141 3.66161578 7.63217696 4.16270474 4.4375 6.1875 C3.61121094 6.71730469 2.78492188 7.24710938 1.93359375 7.79296875 C1.29550781 8.19128906 0.65742187 8.58960938 0 9 C0 6.03 0 3.06 0 0 Z " fill="#F2F4EF" transform="translate(699,645)"/>
<path d="M0 0 C0.99 0 1.98 0 3 0 C1.72936492 4.96702804 -0.04342689 7.71893937 -4 11 C-4.99 11 -5.98 11 -7 11 C-6.1875 8.0625 -6.1875 8.0625 -5 5 C-4.01 4.67 -3.02 4.34 -2 4 C-2 3.34 -2 2.68 -2 2 C-1.34 2 -0.68 2 0 2 C0 1.34 0 0.68 0 0 Z " fill="#DAE8D7" transform="translate(451,271)"/>
<path d="M0 0 C5.3762621 2.91214197 10.17918273 6.24351901 15 10 C14.01 10.99 13.02 11.98 12 13 C11.63648438 12.54109375 11.27296875 12.0821875 10.8984375 11.609375 C8.36084857 8.51221518 6.03902003 5.82532683 2.625 3.6875 C1.75875 3.130625 0.8925 2.57375 0 2 C0 1.34 0 0.68 0 0 Z " fill="#DEEDF3" transform="translate(232,627)"/>
<path d="M0 0 C1.4540625 0.0309375 1.4540625 0.0309375 2.9375 0.0625 C2.9375 2.7025 2.9375 5.3425 2.9375 8.0625 C-0.89196843 6.60994301 -2.18300295 4.63354439 -4.0625 1.0625 C-3.0625 0.0625 -3.0625 0.0625 0 0 Z " fill="#F1F3F0" transform="translate(501.0625,406.9375)"/>
<path d="M0 0 C0.66 1.32 1.32 2.64 2 4 C-0.31 5.98 -2.62 7.96 -5 10 C-5 9.01 -5 8.02 -5 7 C-5.99 6.67 -6.98 6.34 -8 6 C-6.35 5.34 -4.7 4.68 -3 4 C-3 3.34 -3 2.68 -3 2 C-2.01 1.34 -1.02 0.68 0 0 Z M-4 5 C-4.33 5.66 -4.66 6.32 -5 7 C-4.01 6.67 -3.02 6.34 -2 6 C-2.66 5.67 -3.32 5.34 -4 5 Z " fill="#7DC4D8" transform="translate(518,542)"/>
<path d="M0 0 C5.92863717 1.16651426 11.38798394 2.75519358 17 5 C16.01 5.495 16.01 5.495 15 6 C14.67 6.66 14.34 7.32 14 8 C9.38 5.69 4.76 3.38 0 1 C0 0.67 0 0.34 0 0 Z " fill="#BAD669" transform="translate(582,307)"/>
<path d="M0 0 C3.465 1.98 3.465 1.98 7 4 C7 4.33 7 4.66 7 5 C4.36 5 1.72 5 -1 5 C-0.67 3.35 -0.34 1.7 0 0 Z " fill="#EEF2EF" transform="translate(587,452)"/>
<path d="M0 0 C2.97 0 5.94 0 9 0 C9 1.65 9 3.3 9 5 C8.34 4.34 7.68 3.68 7 3 C4.68234271 2.28072705 2.34904126 1.6090107 0 1 C0 0.67 0 0.34 0 0 Z " fill="#66BEDF" transform="translate(239,653)"/>
<path d="M0 0 C2.88437779 1.29299694 4.87219421 2.65941363 7 5 C6.67 5.66 6.34 6.32 6 7 C5.34 7 4.68 7 4 7 C2.02 3.535 2.02 3.535 0 0 Z " fill="#79C1AB" transform="translate(498,450)"/>
</svg>
